<?xml version="1.0" encoding="utf-8" standalone="no"?>
<!DOCTYPE svg PUBLIC "-//W3C//DTD SVG 1.1//EN"
  "http://www.w3.org/Graphics/SVG/1.1/DTD/svg11.dtd">
<svg xmlns:xlink="http://www.w3.org/1999/xlink" width="851.4pt" height="513.36pt" viewBox="0 0 851.4 513.36" xmlns="http://www.w3.org/2000/svg" version="1.1">
 <metadata>
  <rdf:RDF xmlns:dc="http://purl.org/dc/elements/1.1/" xmlns:cc="http://creativecommons.org/ns#" xmlns:rdf="http://www.w3.org/1999/02/22-rdf-syntax-ns#">
   <cc:Work>
    <dc:type rdf:resource="http://purl.org/dc/dcmitype/StillImage"/>
    <dc:date>2026-09-25T01:34:56.556210</dc:date>
    <dc:format>image/svg+xml</dc:format>
    <dc:creator>
     <cc:Agent>
      <dc:title>Matplotlib v3.10.9, https://matplotlib.org/</dc:title>
     </cc:Agent>
    </dc:creator>
   </cc:Work>
  </rdf:RDF>
 </metadata>
 <defs>
  <style type="text/css">*{stroke-linejoin: round; stroke-linecap: butt}</style>
 </defs>
 <g id="figure_1">
  <g id="patch_1">
   <path d="M 0 513.36 
L 851.4 513.36 
L 851.4 -0 
L 0 -0 
z
" style="fill: #ffffff"/>
  </g>
  <g id="axes_1">
   <g id="text_1">
    <!-- Both supports retain the entire boundary, and determine its exact radical -->
    <g style="fill: #16324f" transform="translate(39.565781 23.156719) scale(0.21 -0.21)">
     <defs>
      <path id="DejaVuSans-42" d="M 1259 2228 
L 1259 519 
L 2272 519 
Q 2781 519 3026 730 
Q 3272 941 3272 1375 
Q 3272 1813 3026 2020 
Q 2781 2228 2272 2228 
L 1259 2228 
z
M 1259 4147 
L 1259 2741 
L 2194 2741 
Q 2656 2741 2882 2914 
Q 3109 3088 3109 3444 
Q 3109 3797 2882 3972 
Q 2656 4147 2194 4147 
L 1259 4147 
z
M 628 4666 
L 2241 4666 
Q 2963 4666 3353 4366 
Q 3744 4066 3744 3513 
Q 3744 3084 3544 2831 
Q 3344 2578 2956 2516 
Q 3422 2416 3680 2098 
Q 3938 1781 3938 1306 
Q 3938 681 3513 340 
Q 3088 0 2303 0 
L 628 0 
L 628 4666 
z
" transform="scale(0.015625)"/>
      <path id="DejaVuSans-6f" d="M 1959 3097 
Q 1497 3097 1228 2736 
Q 959 2375 959 1747 
Q 959 1119 1226 758 
Q 1494 397 1959 397 
Q 2419 397 2687 759 
Q 2956 1122 2956 1747 
Q 2956 2369 2687 2733 
Q 2419 3097 1959 3097 
z
M 1959 3584 
Q 2709 3584 3137 3096 
Q 3566 2609 3566 1747 
Q 3566 888 3137 398 
Q 2709 -91 1959 -91 
Q 1206 -91 779 398 
Q 353 888 353 1747 
Q 353 2609 779 3096 
Q 1206 3584 1959 3584 
z
" transform="scale(0.015625)"/>
      <path id="DejaVuSans-74" d="M 1172 4494 
L 1172 3500 
L 2356 3500 
L 2356 3053 
L 1172 3053 
L 1172 1153 
Q 1172 725 1289 603 
Q 1406 481 1766 481 
L 2356 481 
L 2356 0 
L 1766 0 
Q 1100 0 847 248 
Q 594 497 594 1153 
L 594 3053 
L 172 3053 
L 172 3500 
L 594 3500 
L 594 4494 
L 1172 4494 
z
" transform="scale(0.015625)"/>
      <path id="DejaVuSans-68" d="M 3513 2113 
L 3513 0 
L 2938 0 
L 2938 2094 
Q 2938 2591 2744 2837 
Q 2550 3084 2163 3084 
Q 1697 3084 1428 2787 
Q 1159 2491 1159 1978 
L 1159 0 
L 581 0 
L 581 4863 
L 1159 4863 
L 1159 2956 
Q 1366 3272 1645 3428 
Q 1925 3584 2291 3584 
Q 2894 3584 3203 3211 
Q 3513 2838 3513 2113 
z
" transform="scale(0.015625)"/>
      <path id="DejaVuSans-20" transform="scale(0.015625)"/>
      <path id="DejaVuSans-73" d="M 2834 3397 
L 2834 2853 
Q 2591 2978 2328 3040 
Q 2066 3103 1784 3103 
Q 1356 3103 1142 2972 
Q 928 2841 928 2578 
Q 928 2378 1081 2264 
Q 1234 2150 1697 2047 
L 1894 2003 
Q 2506 1872 2764 1633 
Q 3022 1394 3022 966 
Q 3022 478 2636 193 
Q 2250 -91 1575 -91 
Q 1294 -91 989 -36 
Q 684 19 347 128 
L 347 722 
Q 666 556 975 473 
Q 1284 391 1588 391 
Q 1994 391 2212 530 
Q 2431 669 2431 922 
Q 2431 1156 2273 1281 
Q 2116 1406 1581 1522 
L 1381 1569 
Q 847 1681 609 1914 
Q 372 2147 372 2553 
Q 372 3047 722 3315 
Q 1072 3584 1716 3584 
Q 2034 3584 2315 3537 
Q 2597 3491 2834 3397 
z
" transform="scale(0.015625)"/>
      <path id="DejaVuSans-75" d="M 544 1381 
L 544 3500 
L 1119 3500 
L 1119 1403 
Q 1119 906 1312 657 
Q 1506 409 1894 409 
Q 2359 409 2629 706 
Q 2900 1003 2900 1516 
L 2900 3500 
L 3475 3500 
L 3475 0 
L 2900 0 
L 2900 538 
Q 2691 219 2414 64 
Q 2138 -91 1772 -91 
Q 1169 -91 856 284 
Q 544 659 544 1381 
z
M 1991 3584 
L 1991 3584 
z
" transform="scale(0.015625)"/>
      <path id="DejaVuSans-70" d="M 1159 525 
L 1159 -1331 
L 581 -1331 
L 581 3500 
L 1159 3500 
L 1159 2969 
Q 1341 3281 1617 3432 
Q 1894 3584 2278 3584 
Q 2916 3584 3314 3078 
Q 3713 2572 3713 1747 
Q 3713 922 3314 415 
Q 2916 -91 2278 -91 
Q 1894 -91 1617 61 
Q 1341 213 1159 525 
z
M 3116 1747 
Q 3116 2381 2855 2742 
Q 2594 3103 2138 3103 
Q 1681 3103 1420 2742 
Q 1159 2381 1159 1747 
Q 1159 1113 1420 752 
Q 1681 391 2138 391 
Q 2594 391 2855 752 
Q 3116 1113 3116 1747 
z
" transform="scale(0.015625)"/>
      <path id="DejaVuSans-72" d="M 2631 2963 
Q 2534 3019 2420 3045 
Q 2306 3072 2169 3072 
Q 1681 3072 1420 2755 
Q 1159 2438 1159 1844 
L 1159 0 
L 581 0 
L 581 3500 
L 1159 3500 
L 1159 2956 
Q 1341 3275 1631 3429 
Q 1922 3584 2338 3584 
Q 2397 3584 2469 3576 
Q 2541 3569 2628 3553 
L 2631 2963 
z
" transform="scale(0.015625)"/>
      <path id="DejaVuSans-65" d="M 3597 1894 
L 3597 1613 
L 953 1613 
Q 991 1019 1311 708 
Q 1631 397 2203 397 
Q 2534 397 2845 478 
Q 3156 559 3463 722 
L 3463 178 
Q 3153 47 2828 -22 
Q 2503 -91 2169 -91 
Q 1331 -91 842 396 
Q 353 884 353 1716 
Q 353 2575 817 3079 
Q 1281 3584 2069 3584 
Q 2775 3584 3186 3129 
Q 3597 2675 3597 1894 
z
M 3022 2063 
Q 3016 2534 2758 2815 
Q 2500 3097 2075 3097 
Q 1594 3097 1305 2825 
Q 1016 2553 972 2059 
L 3022 2063 
z
" transform="scale(0.015625)"/>
      <path id="DejaVuSans-61" d="M 2194 1759 
Q 1497 1759 1228 1600 
Q 959 1441 959 1056 
Q 959 750 1161 570 
Q 1363 391 1709 391 
Q 2188 391 2477 730 
Q 2766 1069 2766 1631 
L 2766 1759 
L 2194 1759 
z
M 3341 1997 
L 3341 0 
L 2766 0 
L 2766 531 
Q 2569 213 2275 61 
Q 1981 -91 1556 -91 
Q 1019 -91 701 211 
Q 384 513 384 1019 
Q 384 1609 779 1909 
Q 1175 2209 1959 2209 
L 2766 2209 
L 2766 2266 
Q 2766 2663 2505 2880 
Q 2244 3097 1772 3097 
Q 1472 3097 1187 3025 
Q 903 2953 641 2809 
L 641 3341 
Q 956 3463 1253 3523 
Q 1550 3584 1831 3584 
Q 2591 3584 2966 3190 
Q 3341 2797 3341 1997 
z
" transform="scale(0.015625)"/>
      <path id="DejaVuSans-69" d="M 603 3500 
L 1178 3500 
L 1178 0 
L 603 0 
L 603 3500 
z
M 603 4863 
L 1178 4863 
L 1178 4134 
L 603 4134 
L 603 4863 
z
" transform="scale(0.015625)"/>
      <path id="DejaVuSans-6e" d="M 3513 2113 
L 3513 0 
L 2938 0 
L 2938 2094 
Q 2938 2591 2744 2837 
Q 2550 3084 2163 3084 
Q 1697 3084 1428 2787 
Q 1159 2491 1159 1978 
L 1159 0 
L 581 0 
L 581 3500 
L 1159 3500 
L 1159 2956 
Q 1366 3272 1645 3428 
Q 1925 3584 2291 3584 
Q 2894 3584 3203 3211 
Q 3513 2838 3513 2113 
z
" transform="scale(0.015625)"/>
      <path id="DejaVuSans-62" d="M 3116 1747 
Q 3116 2381 2855 2742 
Q 2594 3103 2138 3103 
Q 1681 3103 1420 2742 
Q 1159 2381 1159 1747 
Q 1159 1113 1420 752 
Q 1681 391 2138 391 
Q 2594 391 2855 752 
Q 3116 1113 3116 1747 
z
M 1159 2969 
Q 1341 3281 1617 3432 
Q 1894 3584 2278 3584 
Q 2916 3584 3314 3078 
Q 3713 2572 3713 1747 
Q 3713 922 3314 415 
Q 2916 -91 2278 -91 
Q 1894 -91 1617 61 
Q 1341 213 1159 525 
L 1159 0 
L 581 0 
L 581 4863 
L 1159 4863 
L 1159 2969 
z
" transform="scale(0.015625)"/>
      <path id="DejaVuSans-64" d="M 2906 2969 
L 2906 4863 
L 3481 4863 
L 3481 0 
L 2906 0 
L 2906 525 
Q 2725 213 2448 61 
Q 2172 -91 1784 -91 
Q 1150 -91 751 415 
Q 353 922 353 1747 
Q 353 2572 751 3078 
Q 1150 3584 1784 3584 
Q 2172 3584 2448 3432 
Q 2725 3281 2906 2969 
z
M 947 1747 
Q 947 1113 1208 752 
Q 1469 391 1925 391 
Q 2381 391 2643 752 
Q 2906 1113 2906 1747 
Q 2906 2381 2643 2742 
Q 2381 3103 1925 3103 
Q 1469 3103 1208 2742 
Q 947 2381 947 1747 
z
" transform="scale(0.015625)"/>
      <path id="DejaVuSans-79" d="M 2059 -325 
Q 1816 -950 1584 -1140 
Q 1353 -1331 966 -1331 
L 506 -1331 
L 506 -850 
L 844 -850 
Q 1081 -850 1212 -737 
Q 1344 -625 1503 -206 
L 1606 56 
L 191 3500 
L 800 3500 
L 1894 763 
L 2988 3500 
L 3597 3500 
L 2059 -325 
z
" transform="scale(0.015625)"/>
      <path id="DejaVuSans-2c" d="M 750 794 
L 1409 794 
L 1409 256 
L 897 -744 
L 494 -744 
L 750 256 
L 750 794 
z
" transform="scale(0.015625)"/>
      <path id="DejaVuSans-6d" d="M 3328 2828 
Q 3544 3216 3844 3400 
Q 4144 3584 4550 3584 
Q 5097 3584 5394 3201 
Q 5691 2819 5691 2113 
L 5691 0 
L 5113 0 
L 5113 2094 
Q 5113 2597 4934 2840 
Q 4756 3084 4391 3084 
Q 3944 3084 3684 2787 
Q 3425 2491 3425 1978 
L 3425 0 
L 2847 0 
L 2847 2094 
Q 2847 2600 2669 2842 
Q 2491 3084 2119 3084 
Q 1678 3084 1418 2786 
Q 1159 2488 1159 1978 
L 1159 0 
L 581 0 
L 581 3500 
L 1159 3500 
L 1159 2956 
Q 1356 3278 1631 3431 
Q 1906 3584 2284 3584 
Q 2666 3584 2933 3390 
Q 3200 3197 3328 2828 
z
" transform="scale(0.015625)"/>
      <path id="DejaVuSans-78" d="M 3513 3500 
L 2247 1797 
L 3578 0 
L 2900 0 
L 1881 1375 
L 863 0 
L 184 0 
L 1544 1831 
L 300 3500 
L 978 3500 
L 1906 2253 
L 2834 3500 
L 3513 3500 
z
" transform="scale(0.015625)"/>
      <path id="DejaVuSans-63" d="M 3122 3366 
L 3122 2828 
Q 2878 2963 2633 3030 
Q 2388 3097 2138 3097 
Q 1578 3097 1268 2742 
Q 959 2388 959 1747 
Q 959 1106 1268 751 
Q 1578 397 2138 397 
Q 2388 397 2633 464 
Q 2878 531 3122 666 
L 3122 134 
Q 2881 22 2623 -34 
Q 2366 -91 2075 -91 
Q 1284 -91 818 406 
Q 353 903 353 1747 
Q 353 2603 823 3093 
Q 1294 3584 2113 3584 
Q 2378 3584 2631 3529 
Q 2884 3475 3122 3366 
z
" transform="scale(0.015625)"/>
      <path id="DejaVuSans-6c" d="M 603 4863 
L 1178 4863 
L 1178 0 
L 603 0 
L 603 4863 
z
" transform="scale(0.015625)"/>
     </defs>
     <use xlink:href="#DejaVuSans-42"/>
     <use xlink:href="#DejaVuSans-6f" transform="translate(68.603516 0)"/>
     <use xlink:href="#DejaVuSans-74" transform="translate(129.785156 0)"/>
     <use xlink:href="#DejaVuSans-68" transform="translate(168.994141 0)"/>
     <use xlink:href="#DejaVuSans-20" transform="translate(232.373047 0)"/>
     <use xlink:href="#DejaVuSans-73" transform="translate(264.160156 0)"/>
     <use xlink:href="#DejaVuSans-75" transform="translate(316.259766 0)"/>
     <use xlink:href="#DejaVuSans-70" transform="translate(379.638672 0)"/>
     <use xlink:href="#DejaVuSans-70" transform="translate(443.115234 0)"/>
     <use xlink:href="#DejaVuSans-6f" transform="translate(506.591797 0)"/>
     <use xlink:href="#DejaVuSans-72" transform="translate(567.773438 0)"/>
     <use xlink:href="#DejaVuSans-74" transform="translate(608.886719 0)"/>
     <use xlink:href="#DejaVuSans-73" transform="translate(648.095703 0)"/>
     <use xlink:href="#DejaVuSans-20" transform="translate(700.195312 0)"/>
     <use xlink:href="#DejaVuSans-72" transform="translate(731.982422 0)"/>
     <use xlink:href="#DejaVuSans-65" transform="translate(770.845703 0)"/>
     <use xlink:href="#DejaVuSans-74" transform="translate(832.369141 0)"/>
     <use xlink:href="#DejaVuSans-61" transform="translate(871.578125 0)"/>
     <use xlink:href="#DejaVuSans-69" transform="translate(932.857422 0)"/>
     <use xlink:href="#DejaVuSans-6e" transform="translate(960.640625 0)"/>
     <use xlink:href="#DejaVuSans-20" transform="translate(1024.019531 0)"/>
     <use xlink:href="#DejaVuSans-74" transform="translate(1055.806641 0)"/>
     <use xlink:href="#DejaVuSans-68" transform="translate(1095.015625 0)"/>
     <use xlink:href="#DejaVuSans-65" transform="translate(1158.394531 0)"/>
     <use xlink:href="#DejaVuSans-20" transform="translate(1219.917969 0)"/>
     <use xlink:href="#DejaVuSans-65" transform="translate(1251.705078 0)"/>
     <use xlink:href="#DejaVuSans-6e" transform="translate(1313.228516 0)"/>
     <use xlink:href="#DejaVuSans-74" transform="translate(1376.607422 0)"/>
     <use xlink:href="#DejaVuSans-69" transform="translate(1415.816406 0)"/>
     <use xlink:href="#DejaVuSans-72" transform="translate(1443.599609 0)"/>
     <use xlink:href="#DejaVuSans-65" transform="translate(1482.462891 0)"/>
     <use xlink:href="#DejaVuSans-20" transform="translate(1543.986328 0)"/>
     <use xlink:href="#DejaVuSans-62" transform="translate(1575.773438 0)"/>
     <use xlink:href="#DejaVuSans-6f" transform="translate(1639.25 0)"/>
     <use xlink:href="#DejaVuSans-75" transform="translate(1700.431641 0)"/>
     <use xlink:href="#DejaVuSans-6e" transform="translate(1763.810547 0)"/>
     <use xlink:href="#DejaVuSans-64" transform="translate(1827.189453 0)"/>
     <use xlink:href="#DejaVuSans-61" transform="translate(1890.666016 0)"/>
     <use xlink:href="#DejaVuSans-72" transform="translate(1951.945312 0)"/>
     <use xlink:href="#DejaVuSans-79" transform="translate(1993.058594 0)"/>
     <use xlink:href="#DejaVuSans-2c" transform="translate(2052.238281 0)"/>
     <use xlink:href="#DejaVuSans-20" transform="translate(2084.025391 0)"/>
     <use xlink:href="#DejaVuSans-61" transform="translate(2115.8125 0)"/>
     <use xlink:href="#DejaVuSans-6e" transform="translate(2177.091797 0)"/>
     <use xlink:href="#DejaVuSans-64" transform="translate(2240.470703 0)"/>
     <use xlink:href="#DejaVuSans-20" transform="translate(2303.947266 0)"/>
     <use xlink:href="#DejaVuSans-64" transform="translate(2335.734375 0)"/>
     <use xlink:href="#DejaVuSans-65" transform="translate(2399.210938 0)"/>
     <use xlink:href="#DejaVuSans-74" transform="translate(2460.734375 0)"/>
     <use xlink:href="#DejaVuSans-65" transform="translate(2499.943359 0)"/>
     <use xlink:href="#DejaVuSans-72" transform="translate(2561.466797 0)"/>
     <use xlink:href="#DejaVuSans-6d" transform="translate(2600.830078 0)"/>
     <use xlink:href="#DejaVuSans-69" transform="translate(2698.242188 0)"/>
     <use xlink:href="#DejaVuSans-6e" transform="translate(2726.025391 0)"/>
     <use xlink:href="#DejaVuSans-65" transform="translate(2789.404297 0)"/>
     <use xlink:href="#DejaVuSans-20" transform="translate(2850.927734 0)"/>
     <use xlink:href="#DejaVuSans-69" transform="translate(2882.714844 0)"/>
     <use xlink:href="#DejaVuSans-74" transform="translate(2910.498047 0)"/>
     <use xlink:href="#DejaVuSans-73" transform="translate(2949.707031 0)"/>
     <use xlink:href="#DejaVuSans-20" transform="translate(3001.806641 0)"/>
     <use xlink:href="#DejaVuSans-65" transform="translate(3033.59375 0)"/>
     <use xlink:href="#DejaVuSans-78" transform="translate(3093.367188 0)"/>
     <use xlink:href="#DejaVuSans-61" transform="translate(3152.546875 0)"/>
     <use xlink:href="#DejaVuSans-63" transform="translate(3213.826172 0)"/>
     <use xlink:href="#DejaVuSans-74" transform="translate(3268.806641 0)"/>
     <use xlink:href="#DejaVuSans-20" transform="translate(3308.015625 0)"/>
     <use xlink:href="#DejaVuSans-72" transform="translate(3339.802734 0)"/>
     <use xlink:href="#DejaVuSans-61" transform="translate(3380.916016 0)"/>
     <use xlink:href="#DejaVuSans-64" transform="translate(3442.195312 0)"/>
     <use xlink:href="#DejaVuSans-69" transform="translate(3505.671875 0)"/>
     <use xlink:href="#DejaVuSans-63" transform="translate(3533.455078 0)"/>
     <use xlink:href="#DejaVuSans-61" transform="translate(3588.435547 0)"/>
     <use xlink:href="#DejaVuSans-6c" transform="translate(3649.714844 0)"/>
    </g>
   </g>
   <g id="text_2">
    <!-- $D_Z=[P\longrightarrow A\oplus A],\qquad u^0=\mathrm{id},\quad u^1(a_+,a_-)=a_+-a_-$ -->
    <g style="fill: #16324f" transform="translate(200.875 68.427811) scale(0.17 -0.17)">
     <defs>
      <path id="DejaVuSans-Oblique-44" d="M 1081 4666 
L 2438 4666 
Q 3519 4666 4070 4208 
Q 4622 3750 4622 2847 
Q 4622 2250 4412 1698 
Q 4203 1147 3834 769 
Q 3463 381 2891 190 
Q 2319 0 1538 0 
L 172 0 
L 1081 4666 
z
M 1613 4147 
L 909 519 
L 1734 519 
Q 2794 519 3375 1128 
Q 3956 1738 3956 2847 
Q 3956 3519 3581 3833 
Q 3206 4147 2406 4147 
L 1613 4147 
z
" transform="scale(0.015625)"/>
      <path id="DejaVuSans-Oblique-5a" d="M 838 4666 
L 4500 4666 
L 4409 4184 
L 794 531 
L 3769 531 
L 3669 0 
L -141 0 
L -50 481 
L 3566 4134 
L 738 4134 
L 838 4666 
z
" transform="scale(0.015625)"/>
      <path id="DejaVuSans-3d" d="M 678 2906 
L 4684 2906 
L 4684 2381 
L 678 2381 
L 678 2906 
z
M 678 1631 
L 4684 1631 
L 4684 1100 
L 678 1100 
L 678 1631 
z
" transform="scale(0.015625)"/>
      <path id="DejaVuSans-5b" d="M 550 4863 
L 1875 4863 
L 1875 4416 
L 1125 4416 
L 1125 -397 
L 1875 -397 
L 1875 -844 
L 550 -844 
L 550 4863 
z
" transform="scale(0.015625)"/>
      <path id="DejaVuSans-Oblique-50" d="M 1081 4666 
L 2541 4666 
Q 3178 4666 3512 4369 
Q 3847 4072 3847 3500 
Q 3847 2731 3353 2303 
Q 2859 1875 1966 1875 
L 1172 1875 
L 806 0 
L 172 0 
L 1081 4666 
z
M 1613 4147 
L 1275 2394 
L 2069 2394 
Q 2606 2394 2893 2669 
Q 3181 2944 3181 3456 
Q 3181 3784 2986 3965 
Q 2791 4147 2438 4147 
L 1613 4147 
z
" transform="scale(0.015625)"/>
      <path id="DejaVuSans-27f6" d="M 8863 2147 
L 8863 1866 
L 7634 638 
L 7259 1013 
L 7988 1741 
L 366 1741 
L 366 2272 
L 7988 2272 
L 7259 3000 
L 7634 3375 
L 8863 2147 
z
" transform="scale(0.015625)"/>
      <path id="DejaVuSans-Oblique-41" d="M 2356 4666 
L 3072 4666 
L 3938 0 
L 3278 0 
L 3084 1197 
L 984 1197 
L 325 0 
L -341 0 
L 2356 4666 
z
M 2584 4044 
L 1275 1722 
L 2988 1722 
L 2584 4044 
z
" transform="scale(0.015625)"/>
      <path id="DejaVuSans-2295" d="M 3306 3522 
Q 3016 3644 2681 3644 
Q 2347 3644 2056 3522 
Q 1769 3400 1531 3163 
Q 1291 2922 1172 2634 
Q 1053 2347 1053 2006 
Q 1053 1675 1172 1387 
Q 1291 1100 1531 859 
Q 1769 622 2056 500 
Q 2347 378 2681 378 
Q 3016 378 3306 500 
Q 3594 622 3831 859 
Q 4072 1100 4190 1387 
Q 4309 1675 4309 2006 
Q 4309 2347 4190 2634 
Q 4072 2922 3831 3163 
Q 3594 3400 3306 3522 
z
M 1878 3956 
Q 2250 4113 2681 4113 
Q 3113 4113 3484 3956 
Q 3856 3800 4163 3494 
Q 4472 3184 4625 2813 
Q 4778 2444 4778 2006 
Q 4778 1578 4625 1206 
Q 4472 838 4163 528 
Q 3856 222 3484 65 
Q 3113 -91 2681 -91 
Q 2250 -91 1878 65 
Q 1506 222 1200 528 
Q 891 838 738 1206 
Q 584 1578 584 2006 
Q 584 2444 738 2813 
Q 891 3184 1200 3494 
Q 1506 3800 1878 3956 
z
M 2947 3388 
L 2947 2272 
L 4059 2272 
L 4059 1741 
L 2947 1741 
L 2947 625 
L 2416 625 
L 2416 1741 
L 1303 1741 
L 1303 2272 
L 2416 2272 
L 2416 3388 
L 2947 3388 
z
" transform="scale(0.015625)"/>
      <path id="DejaVuSans-5d" d="M 1947 4863 
L 1947 -844 
L 622 -844 
L 622 -397 
L 1369 -397 
L 1369 4416 
L 622 4416 
L 622 4863 
L 1947 4863 
z
" transform="scale(0.015625)"/>
      <path id="DejaVuSans-Oblique-75" d="M 428 1388 
L 838 3500 
L 1416 3500 
L 1006 1409 
Q 975 1256 961 1147 
Q 947 1038 947 966 
Q 947 700 1109 554 
Q 1272 409 1569 409 
Q 2031 409 2368 721 
Q 2706 1034 2809 1563 
L 3194 3500 
L 3769 3500 
L 3091 0 
L 2516 0 
L 2631 550 
Q 2388 244 2052 76 
Q 1716 -91 1338 -91 
Q 878 -91 622 161 
Q 366 413 366 863 
Q 366 956 381 1097 
Q 397 1238 428 1388 
z
" transform="scale(0.015625)"/>
      <path id="DejaVuSans-30" d="M 2034 4250 
Q 1547 4250 1301 3770 
Q 1056 3291 1056 2328 
Q 1056 1369 1301 889 
Q 1547 409 2034 409 
Q 2525 409 2770 889 
Q 3016 1369 3016 2328 
Q 3016 3291 2770 3770 
Q 2525 4250 2034 4250 
z
M 2034 4750 
Q 2819 4750 3233 4129 
Q 3647 3509 3647 2328 
Q 3647 1150 3233 529 
Q 2819 -91 2034 -91 
Q 1250 -91 836 529 
Q 422 1150 422 2328 
Q 422 3509 836 4129 
Q 1250 4750 2034 4750 
z
" transform="scale(0.015625)"/>
      <path id="DejaVuSans-31" d="M 794 531 
L 1825 531 
L 1825 4091 
L 703 3866 
L 703 4441 
L 1819 4666 
L 2450 4666 
L 2450 531 
L 3481 531 
L 3481 0 
L 794 0 
L 794 531 
z
" transform="scale(0.015625)"/>
      <path id="DejaVuSans-28" d="M 1984 4856 
Q 1566 4138 1362 3434 
Q 1159 2731 1159 2009 
Q 1159 1288 1364 580 
Q 1569 -128 1984 -844 
L 1484 -844 
Q 1016 -109 783 600 
Q 550 1309 550 2009 
Q 550 2706 781 3412 
Q 1013 4119 1484 4856 
L 1984 4856 
z
" transform="scale(0.015625)"/>
      <path id="DejaVuSans-Oblique-61" d="M 3438 1997 
L 3047 0 
L 2472 0 
L 2578 531 
Q 2325 219 2001 64 
Q 1678 -91 1281 -91 
Q 834 -91 548 182 
Q 263 456 263 884 
Q 263 1497 752 1853 
Q 1241 2209 2100 2209 
L 2900 2209 
L 2931 2363 
Q 2938 2388 2941 2417 
Q 2944 2447 2944 2509 
Q 2944 2788 2717 2942 
Q 2491 3097 2081 3097 
Q 1800 3097 1504 3025 
Q 1209 2953 897 2809 
L 997 3341 
Q 1322 3463 1633 3523 
Q 1944 3584 2234 3584 
Q 2853 3584 3176 3315 
Q 3500 3047 3500 2534 
Q 3500 2431 3484 2292 
Q 3469 2153 3438 1997 
z
M 2816 1759 
L 2241 1759 
Q 1534 1759 1195 1570 
Q 856 1381 856 984 
Q 856 709 1029 553 
Q 1203 397 1509 397 
Q 1978 397 2328 733 
Q 2678 1069 2791 1631 
L 2816 1759 
z
" transform="scale(0.015625)"/>
      <path id="DejaVuSans-2b" d="M 2944 4013 
L 2944 2272 
L 4684 2272 
L 4684 1741 
L 2944 1741 
L 2944 0 
L 2419 0 
L 2419 1741 
L 678 1741 
L 678 2272 
L 2419 2272 
L 2419 4013 
L 2944 4013 
z
" transform="scale(0.015625)"/>
      <path id="DejaVuSans-2212" d="M 678 2272 
L 4684 2272 
L 4684 1741 
L 678 1741 
L 678 2272 
z
" transform="scale(0.015625)"/>
      <path id="DejaVuSans-29" d="M 513 4856 
L 1013 4856 
Q 1481 4119 1714 3412 
Q 1947 2706 1947 2009 
Q 1947 1309 1714 600 
Q 1481 -109 1013 -844 
L 513 -844 
Q 928 -128 1133 580 
Q 1338 1288 1338 2009 
Q 1338 2731 1133 3434 
Q 928 4138 513 4856 
z
" transform="scale(0.015625)"/>
     </defs>
     <use xlink:href="#DejaVuSans-Oblique-44" transform="translate(0 0.765625)"/>
     <use xlink:href="#DejaVuSans-Oblique-5a" transform="translate(77.001953 -15.640625) scale(0.7)"/>
     <use xlink:href="#DejaVuSans-3d" transform="translate(147.172852 0.765625)"/>
     <use xlink:href="#DejaVuSans-5b" transform="translate(250.444336 0.765625)"/>
     <use xlink:href="#DejaVuSans-Oblique-50" transform="translate(289.458008 0.765625)"/>
     <use xlink:href="#DejaVuSans-27f6" transform="translate(369.243164 0.765625)"/>
     <use xlink:href="#DejaVuSans-Oblique-41" transform="translate(532.084961 0.765625)"/>
     <use xlink:href="#DejaVuSans-2295" transform="translate(619.975586 0.765625)"/>
     <use xlink:href="#DejaVuSans-Oblique-41" transform="translate(723.24707 0.765625)"/>
     <use xlink:href="#DejaVuSans-5d" transform="translate(791.655273 0.765625)"/>
     <use xlink:href="#DejaVuSans-2c" transform="translate(830.668945 0.765625)"/>
     <use xlink:href="#DejaVuSans-Oblique-75" transform="translate(1076.762695 0.765625)"/>
     <use xlink:href="#DejaVuSans-30" transform="translate(1144.607747 39.046875) scale(0.7)"/>
     <use xlink:href="#DejaVuSans-3d" transform="translate(1211.360677 0.765625)"/>
     <use xlink:href="#DejaVuSans-69" transform="translate(1314.632161 0.765625)"/>
     <use xlink:href="#DejaVuSans-64" transform="translate(1342.415365 0.765625)"/>
     <use xlink:href="#DejaVuSans-2c" transform="translate(1405.891927 0.765625)"/>
     <use xlink:href="#DejaVuSans-Oblique-75" transform="translate(1554.573568 0.765625)"/>
     <use xlink:href="#DejaVuSans-31" transform="translate(1622.41862 39.046875) scale(0.7)"/>
     <use xlink:href="#DejaVuSans-28" transform="translate(1669.689128 0.765625)"/>
     <use xlink:href="#DejaVuSans-Oblique-61" transform="translate(1708.702799 0.765625)"/>
     <use xlink:href="#DejaVuSans-2b" transform="translate(1783.619792 -15.640625) scale(0.7)"/>
     <use xlink:href="#DejaVuSans-2c" transform="translate(1858.644206 0.765625)"/>
     <use xlink:href="#DejaVuSans-Oblique-61" transform="translate(1909.913737 0.765625)"/>
     <use xlink:href="#DejaVuSans-2212" transform="translate(1984.830729 -15.640625) scale(0.7)"/>
     <use xlink:href="#DejaVuSans-29" transform="translate(2059.855143 0.765625)"/>
     <use xlink:href="#DejaVuSans-3d" transform="translate(2118.351237 0.765625)"/>
     <use xlink:href="#DejaVuSans-Oblique-61" transform="translate(2221.622721 0.765625)"/>
     <use xlink:href="#DejaVuSans-2b" transform="translate(2296.539714 -15.640625) scale(0.7)"/>
     <use xlink:href="#DejaVuSans-2212" transform="translate(2391.046549 0.765625)"/>
     <use xlink:href="#DejaVuSans-Oblique-61" transform="translate(2494.318034 0.765625)"/>
     <use xlink:href="#DejaVuSans-2212" transform="translate(2569.235026 -15.640625) scale(0.7)"/>
    </g>
   </g>
   <g id="text_3">
    <!-- $\mathcal{B}_Z((a_+,a_-),(b_+,b_-))$ -->
    <g style="fill: #007f86" transform="translate(319.585 114.443591) scale(0.19 -0.19)">
     <defs>
      <path id="STIXNonUnicode-Italic-e22e" d="M 2080 3341 
L 2099 3328 
Q 2810 4288 3853 4288 
Q 4154 4288 4346 4102 
Q 4538 3917 4538 3622 
Q 4538 3213 4173 2893 
Q 3808 2573 3430 2451 
Q 3866 2406 4144 2169 
Q 4422 1933 4422 1485 
Q 4422 1152 4211 857 
Q 4000 563 3677 377 
Q 3354 192 2986 86 
Q 2618 -19 2291 -19 
Q 1792 -19 1517 186 
L 1587 326 
Q 1843 198 2272 198 
Q 2854 198 3296 595 
Q 3738 992 3738 1478 
Q 3738 1798 3459 2003 
Q 3181 2208 2630 2208 
L 2208 2208 
L 2278 2451 
L 2400 2451 
Q 2611 2451 2867 2508 
Q 3123 2566 3385 2681 
Q 3648 2797 3824 3008 
Q 4000 3219 4000 3482 
Q 4000 3987 3456 3987 
Q 3245 3987 3008 3865 
Q 2771 3744 2624 3590 
Q 2349 3315 2144 2908 
Q 1939 2502 1715 1728 
L 1478 909 
Q 1344 448 1193 253 
Q 1043 58 666 13 
Q 544 0 224 0 
L 282 154 
Q 474 154 576 333 
Q 678 512 870 1190 
L 1536 3514 
Q 1555 3571 1555 3667 
Q 1555 3859 1286 3859 
L 1146 3859 
L 1171 4013 
Q 1875 4077 2355 4237 
L 2080 3341 
z
" transform="scale(0.015625)"/>
      <path id="DejaVuSans-Oblique-62" d="M 3169 2138 
Q 3169 2591 2961 2847 
Q 2753 3103 2388 3103 
Q 2122 3103 1889 2973 
Q 1656 2844 1484 2597 
Q 1303 2338 1198 1995 
Q 1094 1653 1094 1313 
Q 1094 881 1298 636 
Q 1503 391 1863 391 
Q 2134 391 2365 517 
Q 2597 644 2772 891 
Q 2950 1147 3059 1487 
Q 3169 1828 3169 2138 
z
M 1381 2969 
Q 1594 3256 1914 3420 
Q 2234 3584 2584 3584 
Q 3122 3584 3439 3221 
Q 3756 2859 3756 2241 
Q 3756 1734 3570 1259 
Q 3384 784 3041 416 
Q 2816 172 2522 40 
Q 2228 -91 1906 -91 
Q 1566 -91 1316 65 
Q 1066 222 909 531 
L 806 0 
L 231 0 
L 1178 4863 
L 1753 4863 
L 1381 2969 
z
" transform="scale(0.015625)"/>
     </defs>
     <use xlink:href="#STIXNonUnicode-Italic-e22e" transform="translate(0 0.015625)"/>
     <use xlink:href="#DejaVuSans-Oblique-5a" transform="translate(73.357025 -16.390625) scale(0.7)"/>
     <use xlink:href="#DejaVuSans-28" transform="translate(124.045502 0.015625)"/>
     <use xlink:href="#DejaVuSans-28" transform="translate(163.059174 0.015625)"/>
     <use xlink:href="#DejaVuSans-Oblique-61" transform="translate(202.072845 0.015625)"/>
     <use xlink:href="#DejaVuSans-2b" transform="translate(276.989838 -16.390625) scale(0.7)"/>
     <use xlink:href="#DejaVuSans-2c" transform="translate(352.014252 0.015625)"/>
     <use xlink:href="#DejaVuSans-Oblique-61" transform="translate(403.283783 0.015625)"/>
     <use xlink:href="#DejaVuSans-2212" transform="translate(478.200775 -16.390625) scale(0.7)"/>
     <use xlink:href="#DejaVuSans-29" transform="translate(553.225189 0.015625)"/>
     <use xlink:href="#DejaVuSans-2c" transform="translate(592.238861 0.015625)"/>
     <use xlink:href="#DejaVuSans-28" transform="translate(643.508392 0.015625)"/>
     <use xlink:href="#DejaVuSans-Oblique-62" transform="translate(682.522064 0.015625)"/>
     <use xlink:href="#DejaVuSans-2b" transform="translate(759.636322 -16.390625) scale(0.7)"/>
     <use xlink:href="#DejaVuSans-2c" transform="translate(834.660736 0.015625)"/>
     <use xlink:href="#DejaVuSans-Oblique-62" transform="translate(885.930267 0.015625)"/>
     <use xlink:href="#DejaVuSans-2212" transform="translate(963.044525 -16.390625) scale(0.7)"/>
     <use xlink:href="#DejaVuSans-29" transform="translate(1038.068939 0.015625)"/>
     <use xlink:href="#DejaVuSans-29" transform="translate(1077.082611 0.015625)"/>
    </g>
   </g>
   <g id="text_4">
    <!-- $=\mathcal{B}_\zeta(a_+,b_+)-\mathcal{B}_\zeta(a_+,b_-)-\mathcal{B}_\zeta(a_-,b_+)+\mathcal{B}_\zeta(a_-,b_-)$ -->
    <g style="fill: #16324f" transform="translate(211.78 158.56984) scale(0.16 -0.16)">
     <defs>
      <path id="DejaVuSans-Oblique-3b6" d="M 1966 397 
Q 2378 394 2578 159 
Q 2794 -88 2722 -463 
Q 2650 -822 2372 -1072 
Q 2069 -1344 1559 -1344 
Q 1606 -1109 1650 -872 
Q 1863 -888 2022 -750 
Q 2144 -641 2166 -525 
Q 2197 -359 2125 -222 
Q 2050 -91 1872 -91 
Q -22 -91 316 1669 
Q 616 3206 2609 4284 
L 947 4284 
L 1059 4863 
L 3778 4863 
L 3666 4284 
Q 1181 3147 894 1669 
Q 647 397 1966 397 
z
" transform="scale(0.015625)"/>
     </defs>
     <use xlink:href="#DejaVuSans-3d" transform="translate(19.482422 0.015625)"/>
     <use xlink:href="#STIXNonUnicode-Italic-e22e" transform="translate(122.753906 0.015625)"/>
     <use xlink:href="#DejaVuSans-Oblique-3b6" transform="translate(196.110931 -16.390625) scale(0.7)"/>
     <use xlink:href="#DejaVuSans-28" transform="translate(236.921478 0.015625)"/>
     <use xlink:href="#DejaVuSans-Oblique-61" transform="translate(275.93515 0.015625)"/>
     <use xlink:href="#DejaVuSans-2b" transform="translate(350.852142 -16.390625) scale(0.7)"/>
     <use xlink:href="#DejaVuSans-2c" transform="translate(425.876556 0.015625)"/>
     <use xlink:href="#DejaVuSans-Oblique-62" transform="translate(477.146088 0.015625)"/>
     <use xlink:href="#DejaVuSans-2b" transform="translate(554.260345 -16.390625) scale(0.7)"/>
     <use xlink:href="#DejaVuSans-29" transform="translate(629.28476 0.015625)"/>
     <use xlink:href="#DejaVuSans-2212" transform="translate(687.780853 0.015625)"/>
     <use xlink:href="#STIXNonUnicode-Italic-e22e" transform="translate(791.052338 0.015625)"/>
     <use xlink:href="#DejaVuSans-Oblique-3b6" transform="translate(864.409363 -16.390625) scale(0.7)"/>
     <use xlink:href="#DejaVuSans-28" transform="translate(905.21991 0.015625)"/>
     <use xlink:href="#DejaVuSans-Oblique-61" transform="translate(944.233582 0.015625)"/>
     <use xlink:href="#DejaVuSans-2b" transform="translate(1019.150574 -16.390625) scale(0.7)"/>
     <use xlink:href="#DejaVuSans-2c" transform="translate(1094.174988 0.015625)"/>
     <use xlink:href="#DejaVuSans-Oblique-62" transform="translate(1145.444519 0.015625)"/>
     <use xlink:href="#DejaVuSans-2212" transform="translate(1222.558777 -16.390625) scale(0.7)"/>
     <use xlink:href="#DejaVuSans-29" transform="translate(1297.583191 0.015625)"/>
     <use xlink:href="#DejaVuSans-2212" transform="translate(1356.079285 0.015625)"/>
     <use xlink:href="#STIXNonUnicode-Italic-e22e" transform="translate(1459.350769 0.015625)"/>
     <use xlink:href="#DejaVuSans-Oblique-3b6" transform="translate(1532.707794 -16.390625) scale(0.7)"/>
     <use xlink:href="#DejaVuSans-28" transform="translate(1573.518341 0.015625)"/>
     <use xlink:href="#DejaVuSans-Oblique-61" transform="translate(1612.532013 0.015625)"/>
     <use xlink:href="#DejaVuSans-2212" transform="translate(1687.449005 -16.390625) scale(0.7)"/>
     <use xlink:href="#DejaVuSans-2c" transform="translate(1762.473419 0.015625)"/>
     <use xlink:href="#DejaVuSans-Oblique-62" transform="translate(1813.74295 0.015625)"/>
     <use xlink:href="#DejaVuSans-2b" transform="translate(1890.857208 -16.390625) scale(0.7)"/>
     <use xlink:href="#DejaVuSans-29" transform="translate(1965.881622 0.015625)"/>
     <use xlink:href="#DejaVuSans-2b" transform="translate(2024.377716 0.015625)"/>
     <use xlink:href="#STIXNonUnicode-Italic-e22e" transform="translate(2127.6492 0.015625)"/>
     <use xlink:href="#DejaVuSans-Oblique-3b6" transform="translate(2201.006226 -16.390625) scale(0.7)"/>
     <use xlink:href="#DejaVuSans-28" transform="translate(2241.816772 0.015625)"/>
     <use xlink:href="#DejaVuSans-Oblique-61" transform="translate(2280.830444 0.015625)"/>
     <use xlink:href="#DejaVuSans-2212" transform="translate(2355.747437 -16.390625) scale(0.7)"/>
     <use xlink:href="#DejaVuSans-2c" transform="translate(2430.771851 0.015625)"/>
     <use xlink:href="#DejaVuSans-Oblique-62" transform="translate(2482.041382 0.015625)"/>
     <use xlink:href="#DejaVuSans-2212" transform="translate(2559.15564 -16.390625) scale(0.7)"/>
     <use xlink:href="#DejaVuSans-29" transform="translate(2634.180054 0.015625)"/>
    </g>
   </g>
   <g id="text_5">
    <!-- $A\ \longrightarrow\ Q\oplus Q\ \longrightarrow\ Q$ -->
    <g style="fill: #16324f" transform="translate(328.89 208.769839) scale(0.21 -0.21)">
     <defs>
      <path id="DejaVuSans-Oblique-51" d="M 2309 -84 
Q 2275 -88 2237 -89 
Q 2200 -91 2125 -91 
Q 1250 -91 756 411 
Q 263 913 263 1797 
Q 263 2319 452 2844 
Q 641 3369 978 3788 
Q 1369 4269 1858 4509 
Q 2347 4750 2938 4750 
Q 3794 4750 4287 4245 
Q 4781 3741 4781 2869 
Q 4781 1928 4265 1147 
Q 3750 366 2919 44 
L 3553 -825 
L 2847 -825 
L 2309 -84 
z
M 2919 4238 
Q 2400 4238 2003 3986 
Q 1606 3734 1313 3219 
Q 1125 2891 1026 2522 
Q 928 2153 928 1778 
Q 928 1128 1239 775 
Q 1550 422 2119 422 
Q 2631 422 3032 676 
Q 3434 931 3719 1434 
Q 3909 1772 4009 2142 
Q 4109 2513 4109 2881 
Q 4109 3528 3796 3883 
Q 3484 4238 2919 4238 
z
" transform="scale(0.015625)"/>
     </defs>
     <use xlink:href="#DejaVuSans-Oblique-41" transform="translate(0 0.78125)"/>
     <use xlink:href="#DejaVuSans-27f6" transform="translate(120.361003 0.78125)"/>
     <use xlink:href="#DejaVuSans-Oblique-51" transform="translate(315.673179 0.78125)"/>
     <use xlink:href="#DejaVuSans-2295" transform="translate(413.866538 0.78125)"/>
     <use xlink:href="#DejaVuSans-Oblique-51" transform="translate(517.138022 0.78125)"/>
     <use xlink:href="#DejaVuSans-27f6" transform="translate(647.80176 0.78125)"/>
     <use xlink:href="#DejaVuSans-Oblique-51" transform="translate(843.113936 0.78125)"/>
    </g>
   </g>
   <g id="text_6">
    <!-- $a\mapsto(\pi a,\pi a),\qquad (q_+,q_-)\mapsto q_+-q_-$ -->
    <g style="fill: #16324f" transform="translate(264.96 252.8964) scale(0.18 -0.18)">
     <defs>
      <path id="DejaVuSans-21a6" d="M 4175 1741 
L 897 1741 
L 897 663 
L 366 663 
L 366 3350 
L 897 3350 
L 897 2272 
L 4175 2272 
L 3447 3000 
L 3822 3375 
L 5050 2147 
L 5050 1866 
L 3822 638 
L 3447 1013 
L 4175 1741 
z
" transform="scale(0.015625)"/>
      <path id="DejaVuSans-Oblique-3c0" d="M 584 3500 
L 3938 3500 
L 3825 2925 
L 3384 2925 
L 2966 775 
Q 2922 550 2981 450 
Q 3038 353 3209 353 
Q 3256 353 3325 363 
Q 3397 369 3419 372 
L 3338 -44 
Q 3222 -84 3103 -103 
Q 2981 -122 2866 -122 
Q 2491 -122 2388 81 
Q 2284 288 2391 838 
L 2797 2925 
L 1506 2925 
L 938 0 
L 350 0 
L 919 2925 
L 472 2925 
L 584 3500 
z
" transform="scale(0.015625)"/>
      <path id="DejaVuSans-Oblique-71" d="M 2669 525 
Q 2438 222 2123 65 
Q 1809 -91 1428 -91 
Q 897 -91 595 267 
Q 294 625 294 1253 
Q 294 1759 480 2231 
Q 666 2703 1013 3078 
Q 1238 3322 1530 3453 
Q 1822 3584 2144 3584 
Q 2531 3584 2781 3431 
Q 3031 3278 3144 2969 
L 3244 3494 
L 3822 3494 
L 2888 -1319 
L 2309 -1319 
L 2669 525 
z
M 891 1338 
Q 891 875 1084 633 
Q 1278 391 1644 391 
Q 2188 391 2572 911 
Q 2956 1431 2956 2175 
Q 2956 2625 2757 2864 
Q 2559 3103 2188 3103 
Q 1916 3103 1684 2976 
Q 1453 2850 1281 2606 
Q 1100 2350 995 2006 
Q 891 1663 891 1338 
z
" transform="scale(0.015625)"/>
     </defs>
     <use xlink:href="#DejaVuSans-Oblique-61" transform="translate(0 0.125)"/>
     <use xlink:href="#DejaVuSans-21a6" transform="translate(80.761719 0.125)"/>
     <use xlink:href="#DejaVuSans-28" transform="translate(184.033203 0.125)"/>
     <use xlink:href="#DejaVuSans-Oblique-3c0" transform="translate(223.046875 0.125)"/>
     <use xlink:href="#DejaVuSans-Oblique-61" transform="translate(283.251953 0.125)"/>
     <use xlink:href="#DejaVuSans-2c" transform="translate(344.53125 0.125)"/>
     <use xlink:href="#DejaVuSans-Oblique-3c0" transform="translate(395.800781 0.125)"/>
     <use xlink:href="#DejaVuSans-Oblique-61" transform="translate(456.005859 0.125)"/>
     <use xlink:href="#DejaVuSans-29" transform="translate(517.285156 0.125)"/>
     <use xlink:href="#DejaVuSans-2c" transform="translate(556.298828 0.125)"/>
     <use xlink:href="#DejaVuSans-28" transform="translate(802.392578 0.125)"/>
     <use xlink:href="#DejaVuSans-Oblique-71" transform="translate(841.40625 0.125)"/>
     <use xlink:href="#DejaVuSans-2b" transform="translate(918.520508 -16.28125) scale(0.7)"/>
     <use xlink:href="#DejaVuSans-2c" transform="translate(993.544922 0.125)"/>
     <use xlink:href="#DejaVuSans-Oblique-71" transform="translate(1044.814453 0.125)"/>
     <use xlink:href="#DejaVuSans-2212" transform="translate(1121.928711 -16.28125) scale(0.7)"/>
     <use xlink:href="#DejaVuSans-29" transform="translate(1196.953125 0.125)"/>
     <use xlink:href="#DejaVuSans-21a6" transform="translate(1255.449219 0.125)"/>
     <use xlink:href="#DejaVuSans-Oblique-71" transform="translate(1358.720703 0.125)"/>
     <use xlink:href="#DejaVuSans-2b" transform="translate(1435.834961 -16.28125) scale(0.7)"/>
     <use xlink:href="#DejaVuSans-2212" transform="translate(1530.341797 0.125)"/>
     <use xlink:href="#DejaVuSans-Oblique-71" transform="translate(1633.613281 0.125)"/>
     <use xlink:href="#DejaVuSans-2212" transform="translate(1710.727539 -16.28125) scale(0.7)"/>
    </g>
   </g>
   <g id="text_7">
    <!-- $\operatorname{rad}_{\rm left}\mathcal{B}_Z=\operatorname{rad}_{\rm right}\mathcal{B}_Z=\Delta Q=\operatorname{im}(A\to Q^2)$ -->
    <g style="fill: #007f86" transform="translate(241.21 302.90968) scale(0.19 -0.19)">
     <defs>
      <path id="DejaVuSans-66" d="M 2375 4863 
L 2375 4384 
L 1825 4384 
Q 1516 4384 1395 4259 
Q 1275 4134 1275 3809 
L 1275 3500 
L 2222 3500 
L 2222 3053 
L 1275 3053 
L 1275 0 
L 697 0 
L 697 3053 
L 147 3053 
L 147 3500 
L 697 3500 
L 697 3744 
Q 697 4328 969 4595 
Q 1241 4863 1831 4863 
L 2375 4863 
z
" transform="scale(0.015625)"/>
      <path id="DejaVuSans-67" d="M 2906 1791 
Q 2906 2416 2648 2759 
Q 2391 3103 1925 3103 
Q 1463 3103 1205 2759 
Q 947 2416 947 1791 
Q 947 1169 1205 825 
Q 1463 481 1925 481 
Q 2391 481 2648 825 
Q 2906 1169 2906 1791 
z
M 3481 434 
Q 3481 -459 3084 -895 
Q 2688 -1331 1869 -1331 
Q 1566 -1331 1297 -1286 
Q 1028 -1241 775 -1147 
L 775 -588 
Q 1028 -725 1275 -790 
Q 1522 -856 1778 -856 
Q 2344 -856 2625 -561 
Q 2906 -266 2906 331 
L 2906 616 
Q 2728 306 2450 153 
Q 2172 0 1784 0 
Q 1141 0 747 490 
Q 353 981 353 1791 
Q 353 2603 747 3093 
Q 1141 3584 1784 3584 
Q 2172 3584 2450 3431 
Q 2728 3278 2906 2969 
L 2906 3500 
L 3481 3500 
L 3481 434 
z
" transform="scale(0.015625)"/>
      <path id="DejaVuSans-394" d="M 2188 4044 
L 906 525 
L 3472 525 
L 2188 4044 
z
M 50 0 
L 1831 4666 
L 2547 4666 
L 4325 0 
L 50 0 
z
" transform="scale(0.015625)"/>
      <path id="DejaVuSans-2192" d="M 5050 2147 
L 5050 1866 
L 3822 638 
L 3447 1013 
L 4175 1741 
L 366 1741 
L 366 2272 
L 4175 2272 
L 3447 3000 
L 3822 3375 
L 5050 2147 
z
" transform="scale(0.015625)"/>
      <path id="DejaVuSans-32" d="M 1228 531 
L 3431 531 
L 3431 0 
L 469 0 
L 469 531 
Q 828 903 1448 1529 
Q 2069 2156 2228 2338 
Q 2531 2678 2651 2914 
Q 2772 3150 2772 3378 
Q 2772 3750 2511 3984 
Q 2250 4219 1831 4219 
Q 1534 4219 1204 4116 
Q 875 4013 500 3803 
L 500 4441 
Q 881 4594 1212 4672 
Q 1544 4750 1819 4750 
Q 2544 4750 2975 4387 
Q 3406 4025 3406 3419 
Q 3406 3131 3298 2873 
Q 3191 2616 2906 2266 
Q 2828 2175 2409 1742 
Q 1991 1309 1228 531 
z
" transform="scale(0.015625)"/>
     </defs>
     <use xlink:href="#DejaVuSans-72" transform="translate(0 0.765625)"/>
     <use xlink:href="#DejaVuSans-61" transform="translate(41.113281 0.765625)"/>
     <use xlink:href="#DejaVuSans-64" transform="translate(102.392578 0.765625)"/>
     <use xlink:href="#DejaVuSans-6c" transform="translate(166.826172 -15.640625) scale(0.7)"/>
     <use xlink:href="#DejaVuSans-65" transform="translate(186.274414 -15.640625) scale(0.7)"/>
     <use xlink:href="#DejaVuSans-66" transform="translate(229.34082 -15.640625) scale(0.7)"/>
     <use xlink:href="#DejaVuSans-74" transform="translate(253.984375 -15.640625) scale(0.7)"/>
     <use xlink:href="#STIXNonUnicode-Italic-e22e" transform="translate(300.400715 0.765625)"/>
     <use xlink:href="#DejaVuSans-Oblique-5a" transform="translate(373.75774 -15.640625) scale(0.7)"/>
     <use xlink:href="#DejaVuSans-3d" transform="translate(443.928639 0.765625)"/>
     <use xlink:href="#DejaVuSans-72" transform="translate(547.200123 0.765625)"/>
     <use xlink:href="#DejaVuSans-61" transform="translate(588.313405 0.765625)"/>
     <use xlink:href="#DejaVuSans-64" transform="translate(649.592701 0.765625)"/>
     <use xlink:href="#DejaVuSans-72" transform="translate(714.026295 -15.640625) scale(0.7)"/>
     <use xlink:href="#DejaVuSans-69" transform="translate(742.805592 -15.640625) scale(0.7)"/>
     <use xlink:href="#DejaVuSans-67" transform="translate(762.253834 -15.640625) scale(0.7)"/>
     <use xlink:href="#DejaVuSans-68" transform="translate(806.687428 -15.640625) scale(0.7)"/>
     <use xlink:href="#DejaVuSans-74" transform="translate(851.052662 -15.640625) scale(0.7)"/>
     <use xlink:href="#STIXNonUnicode-Italic-e22e" transform="translate(897.469003 0.765625)"/>
     <use xlink:href="#DejaVuSans-Oblique-5a" transform="translate(970.826028 -15.640625) scale(0.7)"/>
     <use xlink:href="#DejaVuSans-3d" transform="translate(1040.996926 0.765625)"/>
     <use xlink:href="#DejaVuSans-394" transform="translate(1144.268411 0.765625)"/>
     <use xlink:href="#DejaVuSans-Oblique-51" transform="translate(1212.676614 0.765625)"/>
     <use xlink:href="#DejaVuSans-3d" transform="translate(1310.869973 0.765625)"/>
     <use xlink:href="#DejaVuSans-69" transform="translate(1414.141458 0.765625)"/>
     <use xlink:href="#DejaVuSans-6d" transform="translate(1441.924661 0.765625)"/>
     <use xlink:href="#DejaVuSans-28" transform="translate(1539.33677 0.765625)"/>
     <use xlink:href="#DejaVuSans-Oblique-41" transform="translate(1578.350442 0.765625)"/>
     <use xlink:href="#DejaVuSans-2192" transform="translate(1666.241067 0.765625)"/>
     <use xlink:href="#DejaVuSans-Oblique-51" transform="translate(1769.512551 0.765625)"/>
     <use xlink:href="#DejaVuSans-32" transform="translate(1855.42401 39.046875) scale(0.7)"/>
     <use xlink:href="#DejaVuSans-29" transform="translate(1902.694517 0.765625)"/>
    </g>
   </g>
   <g id="text_8">
    <!-- In retained half-coordinates: $\mathcal{B}_Z((h+k,h-k),(j+l,j-l))=4B_\zeta(k,l)$ -->
    <g style="fill: #16324f" transform="translate(143.5 344.94296) scale(0.17 -0.17)">
     <defs>
      <path id="DejaVuSans-49" d="M 628 4666 
L 1259 4666 
L 1259 0 
L 628 0 
L 628 4666 
z
" transform="scale(0.015625)"/>
      <path id="DejaVuSans-2d" d="M 313 2009 
L 1997 2009 
L 1997 1497 
L 313 1497 
L 313 2009 
z
" transform="scale(0.015625)"/>
      <path id="DejaVuSans-3a" d="M 750 794 
L 1409 794 
L 1409 0 
L 750 0 
L 750 794 
z
M 750 3309 
L 1409 3309 
L 1409 2516 
L 750 2516 
L 750 3309 
z
" transform="scale(0.015625)"/>
      <path id="DejaVuSans-Oblique-68" d="M 3566 2113 
L 3156 0 
L 2578 0 
L 2988 2091 
Q 3016 2238 3031 2350 
Q 3047 2463 3047 2528 
Q 3047 2791 2881 2937 
Q 2716 3084 2419 3084 
Q 1956 3084 1617 2771 
Q 1278 2459 1178 1941 
L 800 0 
L 225 0 
L 1172 4863 
L 1747 4863 
L 1375 2950 
Q 1594 3244 1934 3414 
Q 2275 3584 2650 3584 
Q 3113 3584 3367 3334 
Q 3622 3084 3622 2631 
Q 3622 2519 3608 2391 
Q 3594 2263 3566 2113 
z
" transform="scale(0.015625)"/>
      <path id="DejaVuSans-Oblique-6b" d="M 1172 4863 
L 1747 4863 
L 1197 2028 
L 3169 3500 
L 3916 3500 
L 1716 1825 
L 3322 0 
L 2625 0 
L 1131 1709 
L 800 0 
L 225 0 
L 1172 4863 
z
" transform="scale(0.015625)"/>
      <path id="DejaVuSans-Oblique-6a" d="M 928 3500 
L 1503 3500 
L 813 -63 
L 809 -78 
Q 694 -675 544 -897 
Q 403 -1106 132 -1218 
Q -138 -1331 -506 -1331 
L -722 -1331 
L -628 -844 
L -481 -844 
Q -144 -844 -1 -703 
Q 141 -563 238 -63 
L 928 3500 
z
M 1197 4863 
L 1772 4863 
L 1631 4134 
L 1056 4134 
L 1197 4863 
z
" transform="scale(0.015625)"/>
      <path id="DejaVuSans-Oblique-6c" d="M 1172 4863 
L 1747 4863 
L 800 0 
L 225 0 
L 1172 4863 
z
" transform="scale(0.015625)"/>
      <path id="DejaVuSans-34" d="M 2419 4116 
L 825 1625 
L 2419 1625 
L 2419 4116 
z
M 2253 4666 
L 3047 4666 
L 3047 1625 
L 3713 1625 
L 3713 1100 
L 3047 1100 
L 3047 0 
L 2419 0 
L 2419 1100 
L 313 1100 
L 313 1709 
L 2253 4666 
z
" transform="scale(0.015625)"/>
      <path id="DejaVuSans-Oblique-42" d="M 1081 4666 
L 2694 4666 
Q 3350 4666 3675 4422 
Q 4000 4178 4000 3688 
Q 4000 3238 3720 2911 
Q 3441 2584 2988 2516 
Q 3375 2428 3569 2181 
Q 3763 1934 3763 1522 
Q 3763 819 3242 409 
Q 2722 0 1819 0 
L 172 0 
L 1081 4666 
z
M 1234 2228 
L 903 519 
L 1919 519 
Q 2491 519 2800 781 
Q 3109 1044 3109 1522 
Q 3109 1891 2904 2059 
Q 2700 2228 2247 2228 
L 1234 2228 
z
M 1606 4147 
L 1331 2741 
L 2272 2741 
Q 2775 2741 3058 2959 
Q 3341 3178 3341 3566 
Q 3341 3869 3150 4008 
Q 2959 4147 2541 4147 
L 1606 4147 
z
" transform="scale(0.015625)"/>
     </defs>
     <use xlink:href="#DejaVuSans-49" transform="translate(0 0.015625)"/>
     <use xlink:href="#DejaVuSans-6e" transform="translate(29.492188 0.015625)"/>
     <use xlink:href="#DejaVuSans-20" transform="translate(92.871094 0.015625)"/>
     <use xlink:href="#DejaVuSans-72" transform="translate(124.658203 0.015625)"/>
     <use xlink:href="#DejaVuSans-65" transform="translate(165.771484 0.015625)"/>
     <use xlink:href="#DejaVuSans-74" transform="translate(227.294922 0.015625)"/>
     <use xlink:href="#DejaVuSans-61" transform="translate(266.503906 0.015625)"/>
     <use xlink:href="#DejaVuSans-69" transform="translate(327.783203 0.015625)"/>
     <use xlink:href="#DejaVuSans-6e" transform="translate(355.566406 0.015625)"/>
     <use xlink:href="#DejaVuSans-65" transform="translate(418.945312 0.015625)"/>
     <use xlink:href="#DejaVuSans-64" transform="translate(480.46875 0.015625)"/>
     <use xlink:href="#DejaVuSans-20" transform="translate(543.945312 0.015625)"/>
     <use xlink:href="#DejaVuSans-68" transform="translate(575.732422 0.015625)"/>
     <use xlink:href="#DejaVuSans-61" transform="translate(639.111328 0.015625)"/>
     <use xlink:href="#DejaVuSans-6c" transform="translate(700.390625 0.015625)"/>
     <use xlink:href="#DejaVuSans-66" transform="translate(728.173828 0.015625)"/>
     <use xlink:href="#DejaVuSans-2d" transform="translate(763.378906 0.015625)"/>
     <use xlink:href="#DejaVuSans-63" transform="translate(799.462891 0.015625)"/>
     <use xlink:href="#DejaVuSans-6f" transform="translate(854.443359 0.015625)"/>
     <use xlink:href="#DejaVuSans-6f" transform="translate(915.625 0.015625)"/>
     <use xlink:href="#DejaVuSans-72" transform="translate(976.806641 0.015625)"/>
     <use xlink:href="#DejaVuSans-64" transform="translate(1017.919922 0.015625)"/>
     <use xlink:href="#DejaVuSans-69" transform="translate(1081.396484 0.015625)"/>
     <use xlink:href="#DejaVuSans-6e" transform="translate(1109.179688 0.015625)"/>
     <use xlink:href="#DejaVuSans-61" transform="translate(1172.558594 0.015625)"/>
     <use xlink:href="#DejaVuSans-74" transform="translate(1233.837891 0.015625)"/>
     <use xlink:href="#DejaVuSans-65" transform="translate(1273.046875 0.015625)"/>
     <use xlink:href="#DejaVuSans-73" transform="translate(1334.570312 0.015625)"/>
     <use xlink:href="#DejaVuSans-3a" transform="translate(1386.669922 0.015625)"/>
     <use xlink:href="#DejaVuSans-20" transform="translate(1420.361328 0.015625)"/>
     <use xlink:href="#STIXNonUnicode-Italic-e22e" transform="translate(1452.148438 0.015625)"/>
     <use xlink:href="#DejaVuSans-Oblique-5a" transform="translate(1525.505463 -16.390625) scale(0.7)"/>
     <use xlink:href="#DejaVuSans-28" transform="translate(1576.193939 0.015625)"/>
     <use xlink:href="#DejaVuSans-28" transform="translate(1615.207611 0.015625)"/>
     <use xlink:href="#DejaVuSans-Oblique-68" transform="translate(1654.221283 0.015625)"/>
     <use xlink:href="#DejaVuSans-2b" transform="translate(1737.082611 0.015625)"/>
     <use xlink:href="#DejaVuSans-Oblique-6b" transform="translate(1840.354095 0.015625)"/>
     <use xlink:href="#DejaVuSans-2c" transform="translate(1898.264252 0.015625)"/>
     <use xlink:href="#DejaVuSans-Oblique-68" transform="translate(1949.533783 0.015625)"/>
     <use xlink:href="#DejaVuSans-2212" transform="translate(2032.395111 0.015625)"/>
     <use xlink:href="#DejaVuSans-Oblique-6b" transform="translate(2135.666595 0.015625)"/>
     <use xlink:href="#DejaVuSans-29" transform="translate(2193.576752 0.015625)"/>
     <use xlink:href="#DejaVuSans-2c" transform="translate(2232.590424 0.015625)"/>
     <use xlink:href="#DejaVuSans-28" transform="translate(2283.859955 0.015625)"/>
     <use xlink:href="#DejaVuSans-Oblique-6a" transform="translate(2322.873627 0.015625)"/>
     <use xlink:href="#DejaVuSans-2b" transform="translate(2370.139252 0.015625)"/>
     <use xlink:href="#DejaVuSans-Oblique-6c" transform="translate(2473.410736 0.015625)"/>
     <use xlink:href="#DejaVuSans-2c" transform="translate(2501.193939 0.015625)"/>
     <use xlink:href="#DejaVuSans-Oblique-6a" transform="translate(2552.46347 0.015625)"/>
     <use xlink:href="#DejaVuSans-2212" transform="translate(2599.729095 0.015625)"/>
     <use xlink:href="#DejaVuSans-Oblique-6c" transform="translate(2703.00058 0.015625)"/>
     <use xlink:href="#DejaVuSans-29" transform="translate(2730.783783 0.015625)"/>
     <use xlink:href="#DejaVuSans-29" transform="translate(2769.797455 0.015625)"/>
     <use xlink:href="#DejaVuSans-3d" transform="translate(2828.293549 0.015625)"/>
     <use xlink:href="#DejaVuSans-34" transform="translate(2931.565033 0.015625)"/>
     <use xlink:href="#DejaVuSans-Oblique-42" transform="translate(2995.18808 0.015625)"/>
     <use xlink:href="#DejaVuSans-Oblique-3b6" transform="translate(3063.791595 -16.390625) scale(0.7)"/>
     <use xlink:href="#DejaVuSans-28" transform="translate(3104.602142 0.015625)"/>
     <use xlink:href="#DejaVuSans-Oblique-6b" transform="translate(3143.615814 0.015625)"/>
     <use xlink:href="#DejaVuSans-2c" transform="translate(3201.52597 0.015625)"/>
     <use xlink:href="#DejaVuSans-Oblique-6c" transform="translate(3252.795502 0.015625)"/>
     <use xlink:href="#DejaVuSans-29" transform="translate(3280.578705 0.015625)"/>
    </g>
   </g>
   <g id="text_9">
    <!-- The radical is a subspace in a bilinear slot. It is not the kernel of the scalar map on Q tensor Q. -->
    <g style="fill: #b05214" transform="translate(141.240937 387.544365) scale(0.12 -0.12)">
     <defs>
      <path id="DejaVuSans-54" d="M -19 4666 
L 3928 4666 
L 3928 4134 
L 2272 4134 
L 2272 0 
L 1638 0 
L 1638 4134 
L -19 4134 
L -19 4666 
z
" transform="scale(0.015625)"/>
      <path id="DejaVuSans-2e" d="M 684 794 
L 1344 794 
L 1344 0 
L 684 0 
L 684 794 
z
" transform="scale(0.015625)"/>
      <path id="DejaVuSans-6b" d="M 581 4863 
L 1159 4863 
L 1159 1991 
L 2875 3500 
L 3609 3500 
L 1753 1863 
L 3688 0 
L 2938 0 
L 1159 1709 
L 1159 0 
L 581 0 
L 581 4863 
z
" transform="scale(0.015625)"/>
      <path id="DejaVuSans-51" d="M 2522 4238 
Q 1834 4238 1429 3725 
Q 1025 3213 1025 2328 
Q 1025 1447 1429 934 
Q 1834 422 2522 422 
Q 3209 422 3611 934 
Q 4013 1447 4013 2328 
Q 4013 3213 3611 3725 
Q 3209 4238 2522 4238 
z
M 3406 84 
L 4238 -825 
L 3475 -825 
L 2784 -78 
Q 2681 -84 2626 -87 
Q 2572 -91 2522 -91 
Q 1538 -91 948 567 
Q 359 1225 359 2328 
Q 359 3434 948 4092 
Q 1538 4750 2522 4750 
Q 3503 4750 4090 4092 
Q 4678 3434 4678 2328 
Q 4678 1516 4351 937 
Q 4025 359 3406 84 
z
" transform="scale(0.015625)"/>
     </defs>
     <use xlink:href="#DejaVuSans-54"/>
     <use xlink:href="#DejaVuSans-68" transform="translate(61.083984 0)"/>
     <use xlink:href="#DejaVuSans-65" transform="translate(124.462891 0)"/>
     <use xlink:href="#DejaVuSans-20" transform="translate(185.986328 0)"/>
     <use xlink:href="#DejaVuSans-72" transform="translate(217.773438 0)"/>
     <use xlink:href="#DejaVuSans-61" transform="translate(258.886719 0)"/>
     <use xlink:href="#DejaVuSans-64" transform="translate(320.166016 0)"/>
     <use xlink:href="#DejaVuSans-69" transform="translate(383.642578 0)"/>
     <use xlink:href="#DejaVuSans-63" transform="translate(411.425781 0)"/>
     <use xlink:href="#DejaVuSans-61" transform="translate(466.40625 0)"/>
     <use xlink:href="#DejaVuSans-6c" transform="translate(527.685547 0)"/>
     <use xlink:href="#DejaVuSans-20" transform="translate(555.46875 0)"/>
     <use xlink:href="#DejaVuSans-69" transform="translate(587.255859 0)"/>
     <use xlink:href="#DejaVuSans-73" transform="translate(615.039062 0)"/>
     <use xlink:href="#DejaVuSans-20" transform="translate(667.138672 0)"/>
     <use xlink:href="#DejaVuSans-61" transform="translate(698.925781 0)"/>
     <use xlink:href="#DejaVuSans-20" transform="translate(760.205078 0)"/>
     <use xlink:href="#DejaVuSans-73" transform="translate(791.992188 0)"/>
     <use xlink:href="#DejaVuSans-75" transform="translate(844.091797 0)"/>
     <use xlink:href="#DejaVuSans-62" transform="translate(907.470703 0)"/>
     <use xlink:href="#DejaVuSans-73" transform="translate(970.947266 0)"/>
     <use xlink:href="#DejaVuSans-70" transform="translate(1023.046875 0)"/>
     <use xlink:href="#DejaVuSans-61" transform="translate(1086.523438 0)"/>
     <use xlink:href="#DejaVuSans-63" transform="translate(1147.802734 0)"/>
     <use xlink:href="#DejaVuSans-65" transform="translate(1202.783203 0)"/>
     <use xlink:href="#DejaVuSans-20" transform="translate(1264.306641 0)"/>
     <use xlink:href="#DejaVuSans-69" transform="translate(1296.09375 0)"/>
     <use xlink:href="#DejaVuSans-6e" transform="translate(1323.876953 0)"/>
     <use xlink:href="#DejaVuSans-20" transform="translate(1387.255859 0)"/>
     <use xlink:href="#DejaVuSans-61" transform="translate(1419.042969 0)"/>
     <use xlink:href="#DejaVuSans-20" transform="translate(1480.322266 0)"/>
     <use xlink:href="#DejaVuSans-62" transform="translate(1512.109375 0)"/>
     <use xlink:href="#DejaVuSans-69" transform="translate(1575.585938 0)"/>
     <use xlink:href="#DejaVuSans-6c" transform="translate(1603.369141 0)"/>
     <use xlink:href="#DejaVuSans-69" transform="translate(1631.152344 0)"/>
     <use xlink:href="#DejaVuSans-6e" transform="translate(1658.935547 0)"/>
     <use xlink:href="#DejaVuSans-65" transform="translate(1722.314453 0)"/>
     <use xlink:href="#DejaVuSans-61" transform="translate(1783.837891 0)"/>
     <use xlink:href="#DejaVuSans-72" transform="translate(1845.117188 0)"/>
     <use xlink:href="#DejaVuSans-20" transform="translate(1886.230469 0)"/>
     <use xlink:href="#DejaVuSans-73" transform="translate(1918.017578 0)"/>
     <use xlink:href="#DejaVuSans-6c" transform="translate(1970.117188 0)"/>
     <use xlink:href="#DejaVuSans-6f" transform="translate(1997.900391 0)"/>
     <use xlink:href="#DejaVuSans-74" transform="translate(2059.082031 0)"/>
     <use xlink:href="#DejaVuSans-2e" transform="translate(2098.291016 0)"/>
     <use xlink:href="#DejaVuSans-20" transform="translate(2130.078125 0)"/>
     <use xlink:href="#DejaVuSans-49" transform="translate(2161.865234 0)"/>
     <use xlink:href="#DejaVuSans-74" transform="translate(2191.357422 0)"/>
     <use xlink:href="#DejaVuSans-20" transform="translate(2230.566406 0)"/>
     <use xlink:href="#DejaVuSans-69" transform="translate(2262.353516 0)"/>
     <use xlink:href="#DejaVuSans-73" transform="translate(2290.136719 0)"/>
     <use xlink:href="#DejaVuSans-20" transform="translate(2342.236328 0)"/>
     <use xlink:href="#DejaVuSans-6e" transform="translate(2374.023438 0)"/>
     <use xlink:href="#DejaVuSans-6f" transform="translate(2437.402344 0)"/>
     <use xlink:href="#DejaVuSans-74" transform="translate(2498.583984 0)"/>
     <use xlink:href="#DejaVuSans-20" transform="translate(2537.792969 0)"/>
     <use xlink:href="#DejaVuSans-74" transform="translate(2569.580078 0)"/>
     <use xlink:href="#DejaVuSans-68" transform="translate(2608.789062 0)"/>
     <use xlink:href="#DejaVuSans-65" transform="translate(2672.167969 0)"/>
     <use xlink:href="#DejaVuSans-20" transform="translate(2733.691406 0)"/>
     <use xlink:href="#DejaVuSans-6b" transform="translate(2765.478516 0)"/>
     <use xlink:href="#DejaVuSans-65" transform="translate(2819.763672 0)"/>
     <use xlink:href="#DejaVuSans-72" transform="translate(2881.287109 0)"/>
     <use xlink:href="#DejaVuSans-6e" transform="translate(2920.650391 0)"/>
     <use xlink:href="#DejaVuSans-65" transform="translate(2984.029297 0)"/>
     <use xlink:href="#DejaVuSans-6c" transform="translate(3045.552734 0)"/>
     <use xlink:href="#DejaVuSans-20" transform="translate(3073.335938 0)"/>
     <use xlink:href="#DejaVuSans-6f" transform="translate(3105.123047 0)"/>
     <use xlink:href="#DejaVuSans-66" transform="translate(3166.304688 0)"/>
     <use xlink:href="#DejaVuSans-20" transform="translate(3201.509766 0)"/>
     <use xlink:href="#DejaVuSans-74" transform="translate(3233.296875 0)"/>
     <use xlink:href="#DejaVuSans-68" transform="translate(3272.505859 0)"/>
     <use xlink:href="#DejaVuSans-65" transform="translate(3335.884766 0)"/>
     <use xlink:href="#DejaVuSans-20" transform="translate(3397.408203 0)"/>
     <use xlink:href="#DejaVuSans-73" transform="translate(3429.195312 0)"/>
     <use xlink:href="#DejaVuSans-63" transform="translate(3481.294922 0)"/>
     <use xlink:href="#DejaVuSans-61" transform="translate(3536.275391 0)"/>
     <use xlink:href="#DejaVuSans-6c" transform="translate(3597.554688 0)"/>
     <use xlink:href="#DejaVuSans-61" transform="translate(3625.337891 0)"/>
     <use xlink:href="#DejaVuSans-72" transform="translate(3686.617188 0)"/>
     <use xlink:href="#DejaVuSans-20" transform="translate(3727.730469 0)"/>
     <use xlink:href="#DejaVuSans-6d" transform="translate(3759.517578 0)"/>
     <use xlink:href="#DejaVuSans-61" transform="translate(3856.929688 0)"/>
     <use xlink:href="#DejaVuSans-70" transform="translate(3918.208984 0)"/>
     <use xlink:href="#DejaVuSans-20" transform="translate(3981.685547 0)"/>
     <use xlink:href="#DejaVuSans-6f" transform="translate(4013.472656 0)"/>
     <use xlink:href="#DejaVuSans-6e" transform="translate(4074.654297 0)"/>
     <use xlink:href="#DejaVuSans-20" transform="translate(4138.033203 0)"/>
     <use xlink:href="#DejaVuSans-51" transform="translate(4169.820312 0)"/>
     <use xlink:href="#DejaVuSans-20" transform="translate(4248.53125 0)"/>
     <use xlink:href="#DejaVuSans-74" transform="translate(4280.318359 0)"/>
     <use xlink:href="#DejaVuSans-65" transform="translate(4319.527344 0)"/>
     <use xlink:href="#DejaVuSans-6e" transform="translate(4381.050781 0)"/>
     <use xlink:href="#DejaVuSans-73" transform="translate(4444.429688 0)"/>
     <use xlink:href="#DejaVuSans-6f" transform="translate(4496.529297 0)"/>
     <use xlink:href="#DejaVuSans-72" transform="translate(4557.710938 0)"/>
     <use xlink:href="#DejaVuSans-20" transform="translate(4598.824219 0)"/>
     <use xlink:href="#DejaVuSans-51" transform="translate(4630.611328 0)"/>
     <use xlink:href="#DejaVuSans-2e" transform="translate(4709.322266 0)"/>
    </g>
   </g>
   <g id="text_10">
    <!-- Exact proof: PRS5.1–PRS5.4; original residue nondegeneracy: GZR6 with the full unshifted return. -->
    <g style="fill: #728092" transform="translate(133.580625 433.947645) scale(0.12 -0.12)">
     <defs>
      <path id="DejaVuSans-45" d="M 628 4666 
L 3578 4666 
L 3578 4134 
L 1259 4134 
L 1259 2753 
L 3481 2753 
L 3481 2222 
L 1259 2222 
L 1259 531 
L 3634 531 
L 3634 0 
L 628 0 
L 628 4666 
z
" transform="scale(0.015625)"/>
      <path id="DejaVuSans-50" d="M 1259 4147 
L 1259 2394 
L 2053 2394 
Q 2494 2394 2734 2622 
Q 2975 2850 2975 3272 
Q 2975 3691 2734 3919 
Q 2494 4147 2053 4147 
L 1259 4147 
z
M 628 4666 
L 2053 4666 
Q 2838 4666 3239 4311 
Q 3641 3956 3641 3272 
Q 3641 2581 3239 2228 
Q 2838 1875 2053 1875 
L 1259 1875 
L 1259 0 
L 628 0 
L 628 4666 
z
" transform="scale(0.015625)"/>
      <path id="DejaVuSans-52" d="M 2841 2188 
Q 3044 2119 3236 1894 
Q 3428 1669 3622 1275 
L 4263 0 
L 3584 0 
L 2988 1197 
Q 2756 1666 2539 1819 
Q 2322 1972 1947 1972 
L 1259 1972 
L 1259 0 
L 628 0 
L 628 4666 
L 2053 4666 
Q 2853 4666 3247 4331 
Q 3641 3997 3641 3322 
Q 3641 2881 3436 2590 
Q 3231 2300 2841 2188 
z
M 1259 4147 
L 1259 2491 
L 2053 2491 
Q 2509 2491 2742 2702 
Q 2975 2913 2975 3322 
Q 2975 3731 2742 3939 
Q 2509 4147 2053 4147 
L 1259 4147 
z
" transform="scale(0.015625)"/>
      <path id="DejaVuSans-53" d="M 3425 4513 
L 3425 3897 
Q 3066 4069 2747 4153 
Q 2428 4238 2131 4238 
Q 1616 4238 1336 4038 
Q 1056 3838 1056 3469 
Q 1056 3159 1242 3001 
Q 1428 2844 1947 2747 
L 2328 2669 
Q 3034 2534 3370 2195 
Q 3706 1856 3706 1288 
Q 3706 609 3251 259 
Q 2797 -91 1919 -91 
Q 1588 -91 1214 -16 
Q 841 59 441 206 
L 441 856 
Q 825 641 1194 531 
Q 1563 422 1919 422 
Q 2459 422 2753 634 
Q 3047 847 3047 1241 
Q 3047 1584 2836 1778 
Q 2625 1972 2144 2069 
L 1759 2144 
Q 1053 2284 737 2584 
Q 422 2884 422 3419 
Q 422 4038 858 4394 
Q 1294 4750 2059 4750 
Q 2388 4750 2728 4690 
Q 3069 4631 3425 4513 
z
" transform="scale(0.015625)"/>
      <path id="DejaVuSans-35" d="M 691 4666 
L 3169 4666 
L 3169 4134 
L 1269 4134 
L 1269 2991 
Q 1406 3038 1543 3061 
Q 1681 3084 1819 3084 
Q 2600 3084 3056 2656 
Q 3513 2228 3513 1497 
Q 3513 744 3044 326 
Q 2575 -91 1722 -91 
Q 1428 -91 1123 -41 
Q 819 9 494 109 
L 494 744 
Q 775 591 1075 516 
Q 1375 441 1709 441 
Q 2250 441 2565 725 
Q 2881 1009 2881 1497 
Q 2881 1984 2565 2268 
Q 2250 2553 1709 2553 
Q 1456 2553 1204 2497 
Q 953 2441 691 2322 
L 691 4666 
z
" transform="scale(0.015625)"/>
      <path id="DejaVuSans-2013" d="M 313 1978 
L 2888 1978 
L 2888 1528 
L 313 1528 
L 313 1978 
z
" transform="scale(0.015625)"/>
      <path id="DejaVuSans-3b" d="M 750 3309 
L 1409 3309 
L 1409 2516 
L 750 2516 
L 750 3309 
z
M 750 794 
L 1409 794 
L 1409 256 
L 897 -744 
L 494 -744 
L 750 256 
L 750 794 
z
" transform="scale(0.015625)"/>
      <path id="DejaVuSans-47" d="M 3809 666 
L 3809 1919 
L 2778 1919 
L 2778 2438 
L 4434 2438 
L 4434 434 
Q 4069 175 3628 42 
Q 3188 -91 2688 -91 
Q 1594 -91 976 548 
Q 359 1188 359 2328 
Q 359 3472 976 4111 
Q 1594 4750 2688 4750 
Q 3144 4750 3555 4637 
Q 3966 4525 4313 4306 
L 4313 3634 
Q 3963 3931 3569 4081 
Q 3175 4231 2741 4231 
Q 1884 4231 1454 3753 
Q 1025 3275 1025 2328 
Q 1025 1384 1454 906 
Q 1884 428 2741 428 
Q 3075 428 3337 486 
Q 3600 544 3809 666 
z
" transform="scale(0.015625)"/>
      <path id="DejaVuSans-5a" d="M 359 4666 
L 4025 4666 
L 4025 4184 
L 1075 531 
L 4097 531 
L 4097 0 
L 288 0 
L 288 481 
L 3238 4134 
L 359 4134 
L 359 4666 
z
" transform="scale(0.015625)"/>
      <path id="DejaVuSans-36" d="M 2113 2584 
Q 1688 2584 1439 2293 
Q 1191 2003 1191 1497 
Q 1191 994 1439 701 
Q 1688 409 2113 409 
Q 2538 409 2786 701 
Q 3034 994 3034 1497 
Q 3034 2003 2786 2293 
Q 2538 2584 2113 2584 
z
M 3366 4563 
L 3366 3988 
Q 3128 4100 2886 4159 
Q 2644 4219 2406 4219 
Q 1781 4219 1451 3797 
Q 1122 3375 1075 2522 
Q 1259 2794 1537 2939 
Q 1816 3084 2150 3084 
Q 2853 3084 3261 2657 
Q 3669 2231 3669 1497 
Q 3669 778 3244 343 
Q 2819 -91 2113 -91 
Q 1303 -91 875 529 
Q 447 1150 447 2328 
Q 447 3434 972 4092 
Q 1497 4750 2381 4750 
Q 2619 4750 2861 4703 
Q 3103 4656 3366 4563 
z
" transform="scale(0.015625)"/>
      <path id="DejaVuSans-77" d="M 269 3500 
L 844 3500 
L 1563 769 
L 2278 3500 
L 2956 3500 
L 3675 769 
L 4391 3500 
L 4966 3500 
L 4050 0 
L 3372 0 
L 2619 2869 
L 1863 0 
L 1184 0 
L 269 3500 
z
" transform="scale(0.015625)"/>
     </defs>
     <use xlink:href="#DejaVuSans-45"/>
     <use xlink:href="#DejaVuSans-78" transform="translate(63.183594 0)"/>
     <use xlink:href="#DejaVuSans-61" transform="translate(122.363281 0)"/>
     <use xlink:href="#DejaVuSans-63" transform="translate(183.642578 0)"/>
     <use xlink:href="#DejaVuSans-74" transform="translate(238.623047 0)"/>
     <use xlink:href="#DejaVuSans-20" transform="translate(277.832031 0)"/>
     <use xlink:href="#DejaVuSans-70" transform="translate(309.619141 0)"/>
     <use xlink:href="#DejaVuSans-72" transform="translate(373.095703 0)"/>
     <use xlink:href="#DejaVuSans-6f" transform="translate(411.958984 0)"/>
     <use xlink:href="#DejaVuSans-6f" transform="translate(473.140625 0)"/>
     <use xlink:href="#DejaVuSans-66" transform="translate(534.322266 0)"/>
     <use xlink:href="#DejaVuSans-3a" transform="translate(565.902344 0)"/>
     <use xlink:href="#DejaVuSans-20" transform="translate(599.59375 0)"/>
     <use xlink:href="#DejaVuSans-50" transform="translate(631.380859 0)"/>
     <use xlink:href="#DejaVuSans-52" transform="translate(691.683594 0)"/>
     <use xlink:href="#DejaVuSans-53" transform="translate(761.166016 0)"/>
     <use xlink:href="#DejaVuSans-35" transform="translate(824.642578 0)"/>
     <use xlink:href="#DejaVuSans-2e" transform="translate(888.265625 0)"/>
     <use xlink:href="#DejaVuSans-31" transform="translate(920.052734 0)"/>
     <use xlink:href="#DejaVuSans-2013" transform="translate(983.675781 0)"/>
     <use xlink:href="#DejaVuSans-50" transform="translate(1033.675781 0)"/>
     <use xlink:href="#DejaVuSans-52" transform="translate(1093.978516 0)"/>
     <use xlink:href="#DejaVuSans-53" transform="translate(1163.460938 0)"/>
     <use xlink:href="#DejaVuSans-35" transform="translate(1226.9375 0)"/>
     <use xlink:href="#DejaVuSans-2e" transform="translate(1290.560547 0)"/>
     <use xlink:href="#DejaVuSans-34" transform="translate(1322.347656 0)"/>
     <use xlink:href="#DejaVuSans-3b" transform="translate(1385.970703 0)"/>
     <use xlink:href="#DejaVuSans-20" transform="translate(1419.662109 0)"/>
     <use xlink:href="#DejaVuSans-6f" transform="translate(1451.449219 0)"/>
     <use xlink:href="#DejaVuSans-72" transform="translate(1512.630859 0)"/>
     <use xlink:href="#DejaVuSans-69" transform="translate(1553.744141 0)"/>
     <use xlink:href="#DejaVuSans-67" transform="translate(1581.527344 0)"/>
     <use xlink:href="#DejaVuSans-69" transform="translate(1645.003906 0)"/>
     <use xlink:href="#DejaVuSans-6e" transform="translate(1672.787109 0)"/>
     <use xlink:href="#DejaVuSans-61" transform="translate(1736.166016 0)"/>
     <use xlink:href="#DejaVuSans-6c" transform="translate(1797.445312 0)"/>
     <use xlink:href="#DejaVuSans-20" transform="translate(1825.228516 0)"/>
     <use xlink:href="#DejaVuSans-72" transform="translate(1857.015625 0)"/>
     <use xlink:href="#DejaVuSans-65" transform="translate(1895.878906 0)"/>
     <use xlink:href="#DejaVuSans-73" transform="translate(1957.402344 0)"/>
     <use xlink:href="#DejaVuSans-69" transform="translate(2009.501953 0)"/>
     <use xlink:href="#DejaVuSans-64" transform="translate(2037.285156 0)"/>
     <use xlink:href="#DejaVuSans-75" transform="translate(2100.761719 0)"/>
     <use xlink:href="#DejaVuSans-65" transform="translate(2164.140625 0)"/>
     <use xlink:href="#DejaVuSans-20" transform="translate(2225.664062 0)"/>
     <use xlink:href="#DejaVuSans-6e" transform="translate(2257.451172 0)"/>
     <use xlink:href="#DejaVuSans-6f" transform="translate(2320.830078 0)"/>
     <use xlink:href="#DejaVuSans-6e" transform="translate(2382.011719 0)"/>
     <use xlink:href="#DejaVuSans-64" transform="translate(2445.390625 0)"/>
     <use xlink:href="#DejaVuSans-65" transform="translate(2508.867188 0)"/>
     <use xlink:href="#DejaVuSans-67" transform="translate(2570.390625 0)"/>
     <use xlink:href="#DejaVuSans-65" transform="translate(2633.867188 0)"/>
     <use xlink:href="#DejaVuSans-6e" transform="translate(2695.390625 0)"/>
     <use xlink:href="#DejaVuSans-65" transform="translate(2758.769531 0)"/>
     <use xlink:href="#DejaVuSans-72" transform="translate(2820.292969 0)"/>
     <use xlink:href="#DejaVuSans-61" transform="translate(2861.40625 0)"/>
     <use xlink:href="#DejaVuSans-63" transform="translate(2922.685547 0)"/>
     <use xlink:href="#DejaVuSans-79" transform="translate(2977.666016 0)"/>
     <use xlink:href="#DejaVuSans-3a" transform="translate(3029.595703 0)"/>
     <use xlink:href="#DejaVuSans-20" transform="translate(3063.287109 0)"/>
     <use xlink:href="#DejaVuSans-47" transform="translate(3095.074219 0)"/>
     <use xlink:href="#DejaVuSans-5a" transform="translate(3172.564453 0)"/>
     <use xlink:href="#DejaVuSans-52" transform="translate(3241.070312 0)"/>
     <use xlink:href="#DejaVuSans-36" transform="translate(3310.552734 0)"/>
     <use xlink:href="#DejaVuSans-20" transform="translate(3374.175781 0)"/>
     <use xlink:href="#DejaVuSans-77" transform="translate(3405.962891 0)"/>
     <use xlink:href="#DejaVuSans-69" transform="translate(3487.75 0)"/>
     <use xlink:href="#DejaVuSans-74" transform="translate(3515.533203 0)"/>
     <use xlink:href="#DejaVuSans-68" transform="translate(3554.742188 0)"/>
     <use xlink:href="#DejaVuSans-20" transform="translate(3618.121094 0)"/>
     <use xlink:href="#DejaVuSans-74" transform="translate(3649.908203 0)"/>
     <use xlink:href="#DejaVuSans-68" transform="translate(3689.117188 0)"/>
     <use xlink:href="#DejaVuSans-65" transform="translate(3752.496094 0)"/>
     <use xlink:href="#DejaVuSans-20" transform="translate(3814.019531 0)"/>
     <use xlink:href="#DejaVuSans-66" transform="translate(3845.806641 0)"/>
     <use xlink:href="#DejaVuSans-75" transform="translate(3881.011719 0)"/>
     <use xlink:href="#DejaVuSans-6c" transform="translate(3944.390625 0)"/>
     <use xlink:href="#DejaVuSans-6c" transform="translate(3972.173828 0)"/>
     <use xlink:href="#DejaVuSans-20" transform="translate(3999.957031 0)"/>
     <use xlink:href="#DejaVuSans-75" transform="translate(4031.744141 0)"/>
     <use xlink:href="#DejaVuSans-6e" transform="translate(4095.123047 0)"/>
     <use xlink:href="#DejaVuSans-73" transform="translate(4158.501953 0)"/>
     <use xlink:href="#DejaVuSans-68" transform="translate(4210.601562 0)"/>
     <use xlink:href="#DejaVuSans-69" transform="translate(4273.980469 0)"/>
     <use xlink:href="#DejaVuSans-66" transform="translate(4301.763672 0)"/>
     <use xlink:href="#DejaVuSans-74" transform="translate(4335.21875 0)"/>
     <use xlink:href="#DejaVuSans-65" transform="translate(4374.427734 0)"/>
     <use xlink:href="#DejaVuSans-64" transform="translate(4435.951172 0)"/>
     <use xlink:href="#DejaVuSans-20" transform="translate(4499.427734 0)"/>
     <use xlink:href="#DejaVuSans-72" transform="translate(4531.214844 0)"/>
     <use xlink:href="#DejaVuSans-65" transform="translate(4570.078125 0)"/>
     <use xlink:href="#DejaVuSans-74" transform="translate(4631.601562 0)"/>
     <use xlink:href="#DejaVuSans-75" transform="translate(4670.810547 0)"/>
     <use xlink:href="#DejaVuSans-72" transform="translate(4734.189453 0)"/>
     <use xlink:href="#DejaVuSans-6e" transform="translate(4773.552734 0)"/>
     <use xlink:href="#DejaVuSans-2e" transform="translate(4836.931641 0)"/>
    </g>
   </g>
   <g id="text_11">
    <!-- All additions occur in the constructed receiving vector spaces; none is assigned to primitive Z₁ / τ. -->
    <g style="fill: #728092" transform="translate(130.089375 480.350925) scale(0.12 -0.12)">
     <defs>
      <path id="DejaVuSans-41" d="M 2188 4044 
L 1331 1722 
L 3047 1722 
L 2188 4044 
z
M 1831 4666 
L 2547 4666 
L 4325 0 
L 3669 0 
L 3244 1197 
L 1141 1197 
L 716 0 
L 50 0 
L 1831 4666 
z
" transform="scale(0.015625)"/>
      <path id="DejaVuSans-76" d="M 191 3500 
L 800 3500 
L 1894 563 
L 2988 3500 
L 3597 3500 
L 2284 0 
L 1503 0 
L 191 3500 
z
" transform="scale(0.015625)"/>
      <path id="DejaVuSans-2081" d="M 488 319 
L 1125 319 
L 1125 2229 
L 428 2101 
L 428 2463 
L 1147 2585 
L 1575 2585 
L 1575 319 
L 2216 319 
L 2216 -24 
L 488 -24 
L 488 319 
z
" transform="scale(0.015625)"/>
      <path id="DejaVuSans-2f" d="M 1625 4666 
L 2156 4666 
L 531 -594 
L 0 -594 
L 1625 4666 
z
" transform="scale(0.015625)"/>
      <path id="DejaVuSans-3c4" d="M 2319 638 
Q 2431 488 2769 488 
L 3047 488 
L 3047 0 
L 2700 0 
Q 2138 0 1881 300 
Q 1625 606 1625 1269 
L 1625 2925 
L 313 2925 
L 313 3500 
L 3541 3500 
L 3541 2925 
L 2213 2925 
L 2213 1234 
Q 2213 781 2319 638 
z
" transform="scale(0.015625)"/>
     </defs>
     <use xlink:href="#DejaVuSans-41"/>
     <use xlink:href="#DejaVuSans-6c" transform="translate(68.408203 0)"/>
     <use xlink:href="#DejaVuSans-6c" transform="translate(96.191406 0)"/>
     <use xlink:href="#DejaVuSans-20" transform="translate(123.974609 0)"/>
     <use xlink:href="#DejaVuSans-61" transform="translate(155.761719 0)"/>
     <use xlink:href="#DejaVuSans-64" transform="translate(217.041016 0)"/>
     <use xlink:href="#DejaVuSans-64" transform="translate(280.517578 0)"/>
     <use xlink:href="#DejaVuSans-69" transform="translate(343.994141 0)"/>
     <use xlink:href="#DejaVuSans-74" transform="translate(371.777344 0)"/>
     <use xlink:href="#DejaVuSans-69" transform="translate(410.986328 0)"/>
     <use xlink:href="#DejaVuSans-6f" transform="translate(438.769531 0)"/>
     <use xlink:href="#DejaVuSans-6e" transform="translate(499.951172 0)"/>
     <use xlink:href="#DejaVuSans-73" transform="translate(563.330078 0)"/>
     <use xlink:href="#DejaVuSans-20" transform="translate(615.429688 0)"/>
     <use xlink:href="#DejaVuSans-6f" transform="translate(647.216797 0)"/>
     <use xlink:href="#DejaVuSans-63" transform="translate(708.398438 0)"/>
     <use xlink:href="#DejaVuSans-63" transform="translate(763.378906 0)"/>
     <use xlink:href="#DejaVuSans-75" transform="translate(818.359375 0)"/>
     <use xlink:href="#DejaVuSans-72" transform="translate(881.738281 0)"/>
     <use xlink:href="#DejaVuSans-20" transform="translate(922.851562 0)"/>
     <use xlink:href="#DejaVuSans-69" transform="translate(954.638672 0)"/>
     <use xlink:href="#DejaVuSans-6e" transform="translate(982.421875 0)"/>
     <use xlink:href="#DejaVuSans-20" transform="translate(1045.800781 0)"/>
     <use xlink:href="#DejaVuSans-74" transform="translate(1077.587891 0)"/>
     <use xlink:href="#DejaVuSans-68" transform="translate(1116.796875 0)"/>
     <use xlink:href="#DejaVuSans-65" transform="translate(1180.175781 0)"/>
     <use xlink:href="#DejaVuSans-20" transform="translate(1241.699219 0)"/>
     <use xlink:href="#DejaVuSans-63" transform="translate(1273.486328 0)"/>
     <use xlink:href="#DejaVuSans-6f" transform="translate(1328.466797 0)"/>
     <use xlink:href="#DejaVuSans-6e" transform="translate(1389.648438 0)"/>
     <use xlink:href="#DejaVuSans-73" transform="translate(1453.027344 0)"/>
     <use xlink:href="#DejaVuSans-74" transform="translate(1505.126953 0)"/>
     <use xlink:href="#DejaVuSans-72" transform="translate(1544.335938 0)"/>
     <use xlink:href="#DejaVuSans-75" transform="translate(1585.449219 0)"/>
     <use xlink:href="#DejaVuSans-63" transform="translate(1648.828125 0)"/>
     <use xlink:href="#DejaVuSans-74" transform="translate(1703.808594 0)"/>
     <use xlink:href="#DejaVuSans-65" transform="translate(1743.017578 0)"/>
     <use xlink:href="#DejaVuSans-64" transform="translate(1804.541016 0)"/>
     <use xlink:href="#DejaVuSans-20" transform="translate(1868.017578 0)"/>
     <use xlink:href="#DejaVuSans-72" transform="translate(1899.804688 0)"/>
     <use xlink:href="#DejaVuSans-65" transform="translate(1938.667969 0)"/>
     <use xlink:href="#DejaVuSans-63" transform="translate(2000.191406 0)"/>
     <use xlink:href="#DejaVuSans-65" transform="translate(2055.171875 0)"/>
     <use xlink:href="#DejaVuSans-69" transform="translate(2116.695312 0)"/>
     <use xlink:href="#DejaVuSans-76" transform="translate(2144.478516 0)"/>
     <use xlink:href="#DejaVuSans-69" transform="translate(2203.658203 0)"/>
     <use xlink:href="#DejaVuSans-6e" transform="translate(2231.441406 0)"/>
     <use xlink:href="#DejaVuSans-67" transform="translate(2294.820312 0)"/>
     <use xlink:href="#DejaVuSans-20" transform="translate(2358.296875 0)"/>
     <use xlink:href="#DejaVuSans-76" transform="translate(2390.083984 0)"/>
     <use xlink:href="#DejaVuSans-65" transform="translate(2449.263672 0)"/>
     <use xlink:href="#DejaVuSans-63" transform="translate(2510.787109 0)"/>
     <use xlink:href="#DejaVuSans-74" transform="translate(2565.767578 0)"/>
     <use xlink:href="#DejaVuSans-6f" transform="translate(2604.976562 0)"/>
     <use xlink:href="#DejaVuSans-72" transform="translate(2666.158203 0)"/>
     <use xlink:href="#DejaVuSans-20" transform="translate(2707.271484 0)"/>
     <use xlink:href="#DejaVuSans-73" transform="translate(2739.058594 0)"/>
     <use xlink:href="#DejaVuSans-70" transform="translate(2791.158203 0)"/>
     <use xlink:href="#DejaVuSans-61" transform="translate(2854.634766 0)"/>
     <use xlink:href="#DejaVuSans-63" transform="translate(2915.914062 0)"/>
     <use xlink:href="#DejaVuSans-65" transform="translate(2970.894531 0)"/>
     <use xlink:href="#DejaVuSans-73" transform="translate(3032.417969 0)"/>
     <use xlink:href="#DejaVuSans-3b" transform="translate(3084.517578 0)"/>
     <use xlink:href="#DejaVuSans-20" transform="translate(3118.208984 0)"/>
     <use xlink:href="#DejaVuSans-6e" transform="translate(3149.996094 0)"/>
     <use xlink:href="#DejaVuSans-6f" transform="translate(3213.375 0)"/>
     <use xlink:href="#DejaVuSans-6e" transform="translate(3274.556641 0)"/>
     <use xlink:href="#DejaVuSans-65" transform="translate(3337.935547 0)"/>
     <use xlink:href="#DejaVuSans-20" transform="translate(3399.458984 0)"/>
     <use xlink:href="#DejaVuSans-69" transform="translate(3431.246094 0)"/>
     <use xlink:href="#DejaVuSans-73" transform="translate(3459.029297 0)"/>
     <use xlink:href="#DejaVuSans-20" transform="translate(3511.128906 0)"/>
     <use xlink:href="#DejaVuSans-61" transform="translate(3542.916016 0)"/>
     <use xlink:href="#DejaVuSans-73" transform="translate(3604.195312 0)"/>
     <use xlink:href="#DejaVuSans-73" transform="translate(3656.294922 0)"/>
     <use xlink:href="#DejaVuSans-69" transform="translate(3708.394531 0)"/>
     <use xlink:href="#DejaVuSans-67" transform="translate(3736.177734 0)"/>
     <use xlink:href="#DejaVuSans-6e" transform="translate(3799.654297 0)"/>
     <use xlink:href="#DejaVuSans-65" transform="translate(3863.033203 0)"/>
     <use xlink:href="#DejaVuSans-64" transform="translate(3924.556641 0)"/>
     <use xlink:href="#DejaVuSans-20" transform="translate(3988.033203 0)"/>
     <use xlink:href="#DejaVuSans-74" transform="translate(4019.820312 0)"/>
     <use xlink:href="#DejaVuSans-6f" transform="translate(4059.029297 0)"/>
     <use xlink:href="#DejaVuSans-20" transform="translate(4120.210938 0)"/>
     <use xlink:href="#DejaVuSans-70" transform="translate(4151.998047 0)"/>
     <use xlink:href="#DejaVuSans-72" transform="translate(4215.474609 0)"/>
     <use xlink:href="#DejaVuSans-69" transform="translate(4256.587891 0)"/>
     <use xlink:href="#DejaVuSans-6d" transform="translate(4284.371094 0)"/>
     <use xlink:href="#DejaVuSans-69" transform="translate(4381.783203 0)"/>
     <use xlink:href="#DejaVuSans-74" transform="translate(4409.566406 0)"/>
     <use xlink:href="#DejaVuSans-69" transform="translate(4448.775391 0)"/>
     <use xlink:href="#DejaVuSans-76" transform="translate(4476.558594 0)"/>
     <use xlink:href="#DejaVuSans-65" transform="translate(4535.738281 0)"/>
     <use xlink:href="#DejaVuSans-20" transform="translate(4597.261719 0)"/>
     <use xlink:href="#DejaVuSans-5a" transform="translate(4629.048828 0)"/>
     <use xlink:href="#DejaVuSans-2081" transform="translate(4697.554688 0)"/>
     <use xlink:href="#DejaVuSans-20" transform="translate(4737.642578 0)"/>
     <use xlink:href="#DejaVuSans-2f" transform="translate(4769.429688 0)"/>
     <use xlink:href="#DejaVuSans-20" transform="translate(4803.121094 0)"/>
     <use xlink:href="#DejaVuSans-3c4" transform="translate(4834.908203 0)"/>
     <use xlink:href="#DejaVuSans-2e" transform="translate(4895.113281 0)"/>
    </g>
   </g>
  </g>
 </g>
</svg>
